<?xml version="1.0" standalone="no"?>
<!DOCTYPE svg PUBLIC "-//W3C//DTD SVG 1.1//EN" "http://www.w3.org/Graphics/SVG/1.1/DTD/svg11.dtd" >
<svg xmlns="http://www.w3.org/2000/svg">
<metadata>
Created by FontPrep 20130207 at Fri Sep 25 09:47:09 2015
 By Jerry van Heerikhuize
Copyright (c) 2009 by The Entente (AS &#38; EH). All rights reserved. wf-rip
</metadata>
<defs>
<font id="934e24968dba3fd4b8694e92b6c242b0" horiz-adv-x='1024' >
  <font-face 
    font-family="Apercu-BoldItalic"
    font-weight="700"
    font-style="italic"
    font-stretch="normal"
    units-per-em="2048"
    panose-1="2 0 8 3 4 0 0 9 0 4"
    ascent="1638"
    descent="-410"
    x-height="1032"
    cap-height="1434"
    bbox="-242 -545 2578.01 1952"
    underline-thickness="102"
    underline-position="-102"
    slope="-12"
    unicode-range="U+0020-FB02"
  />
<missing-glyph horiz-adv-x="1333" 
d="M897 217v1000h-461v-1000h461zM1149 0h-965v1434h965v-1434z" />
    <glyph glyph-name="uniFB01" unicode="fi" horiz-adv-x="1140" 
d="M784 1450q199 0 301 -59l-110 -209q-100 51 -203 51q-240 0 -276 -191l-2 -10h575l-201 -1032h-256l158 815h-319l-158 -815h-256l158 815h-132l43 217h132l2 12q68 406 544 406z" />
    <glyph glyph-name="uniFB02" unicode="fl" horiz-adv-x="1296" 
d="M676 1450h565l-280 -1450h-256l239 1233h-295q-117 0 -143 -129l-12 -72h217l-43 -217h-217l-158 -815h-256l158 815h-132l43 217h132l10 53q35 180 146 273q112 92 282 92z" />
    <glyph glyph-name=".notdef" horiz-adv-x="1333" 
d="M897 217v1000h-461v-1000h461zM1149 0h-965v1434h965v-1434z" />
    <glyph glyph-name=".null" horiz-adv-x="0" 
 />
    <glyph glyph-name="nonmarkingreturn" horiz-adv-x="681" 
 />
    <glyph glyph-name="space" unicode=" " horiz-adv-x="452" 
 />
    <glyph glyph-name="exclam" unicode="!" horiz-adv-x="755" 
d="M115 157q0 71 50 121t120 50q69 0 119 -50t50 -121t-48 -120q-49 -49 -121 -49t-121 49t-49 120zM238 496l124 938h336l-239 -938h-221z" />
    <glyph glyph-name="quotedbl" unicode="&#x22;" horiz-adv-x="987" 
d="M780 940h-155l37 510h282zM391 940h-155l36 510h283z" />
    <glyph glyph-name="numbersign" unicode="#" horiz-adv-x="1466" 
d="M887 838h-232l-77 -242h231zM451 838h-242l24 200h283l129 396h205l-129 -396h231l129 396h205l-129 -396h236l-25 -200h-276l-78 -242h241l-24 -201h-283l-129 -395h-205l129 395h-231l-129 -395h-205l129 395h-235l24 201h277z" />
    <glyph glyph-name="dollar" unicode="$" horiz-adv-x="1105" 
d="M641 1204q-68 0 -109 -40q-40 -40 -40 -104t48 -112t180 -116t195 -146q70 -78 70 -233q0 -229 -154 -353q-115 -94 -278 -112l-33 -172h-250l35 190q-125 43 -205 150q-78 109 -77 233l227 123q27 -283 256 -283q94 -1 148 51t54 135t-42 130q-43 47 -173 117t-200 162
q-70 91 -70 238t101 253q102 106 264 129l33 174h249l-39 -201q167 -69 218 -235l-222 -123q-59 145 -186 145z" />
    <glyph glyph-name="percent" unicode="%" horiz-adv-x="1816" 
d="M123 51l1386 1473l129 -125l-1386 -1473zM1319 444q-66 0 -112 -46t-46 -113q0 -106 105 -107q66 0 112 46t45 114q0 106 -104 106zM950 258q0 168 117 274t289 107q122 0 200 -77t78 -197q0 -169 -117 -275t-288 -106q-121 0 -200 76t-79 198zM481 1255q-65 0 -111 -46
t-46 -113q0 -106 104 -107q66 0 112 46t46 114q-1 106 -105 106zM113 1069q0 169 117 275t288 106q121 0 200 -77t79 -197q0 -168 -117 -274t-289 -107q-121 0 -200 76q-78 77 -78 198z" />
    <glyph glyph-name="ampersand" unicode="&#x26;" horiz-adv-x="1320" 
d="M823 1149q1 39 -25 63t-75 25q-49 0 -86 -43q-37 -42 -37 -102t47 -136q176 80 176 193zM309 426q-1 -102 59 -162t163 -59q103 0 212 96l-217 387q-217 -88 -217 -262zM488 -16q-194 0 -312 106q-117 109 -117 285q0 348 367 499q-51 96 -51 220q0 160 106 258
q109 98 261 98t236 -76q83 -76 83 -200t-77 -220q-77 -94 -230 -170l155 -274q80 139 140 272l125 -188q-72 -172 -150 -285l176 -309h-285l-65 115q-168 -131 -362 -131z" />
    <glyph glyph-name="quotesingle" unicode="'" horiz-adv-x="598" 
d="M391 940h-155l36 510h283z" />
    <glyph glyph-name="parenleft" unicode="(" horiz-adv-x="585" 
d="M322 432q0 -320 73 -534h-219q-92 254 -92 559t111 598t299 481h219q-187 -252 -289 -518t-102 -586z" />
    <glyph glyph-name="parenright" unicode=")" horiz-adv-x="585" 
d="M256 1002q0 320 -74 534h219q93 -254 93 -561t-111 -598t-299 -479h-219q187 252 289 518t102 586z" />
    <glyph glyph-name="asterisk" unicode="*" horiz-adv-x="1007" 
d="M514 1450h213l-45 -231l223 73l53 -202l-249 -76l100 -187l-197 -129l-100 191l-174 -191l-148 129l175 187l-203 76l90 202l217 -73z" />
    <glyph glyph-name="plus" unicode="+" horiz-adv-x="1241" 
d="M506 760l74 377h223l-74 -377h377l-43 -221h-377l-74 -377h-223l74 377h-377l43 221h377z" />
    <glyph glyph-name="comma" unicode="," horiz-adv-x="780" 
d="M158 -319h-176l274 618h336z" />
    <glyph glyph-name="hyphen" unicode="-" horiz-adv-x="1034" 
d="M862 539h-764l43 221h764z" />
    <glyph glyph-name="period" unicode="." horiz-adv-x="622" 
d="M41 160q0 74 49 123t123 49t123 -49t49 -123t-49 -123t-123 -49t-123 49t-49 123z" />
    <glyph glyph-name="slash" unicode="/" horiz-adv-x="1122" 
d="M-178 -102l1192 1638h272l-1192 -1638h-272z" />
    <glyph glyph-name="zero" unicode="0" horiz-adv-x="1241" 
d="M717 1212q-127 0 -223 -120q-172 -223 -172 -568q0 -147 54 -225t148 -78q127 0 224 121q172 223 172 567q0 147 -54 225t-149 78zM1180 920q0 -357 -158 -630q-80 -138 -221 -222t-323 -84t-300 131q-117 131 -117 399q12 627 377 852q142 84 324 84t300 -132t118 -398z
" />
    <glyph glyph-name="one" unicode="1" horiz-adv-x="876" 
d="M193 1188l469 246h114l-280 -1434h-260l208 1073l-305 -164z" />
    <glyph glyph-name="two" unicode="2" horiz-adv-x="1136" 
d="M795 1070q0 70 -36 106t-102 36q-154 0 -217 -204l-243 41q45 185 172 293t309 108t279 -94t98 -262q0 -109 -39 -195t-127 -178l-457 -483h496l-45 -238h-916l19 102l639 668q90 92 130 161t40 139z" />
    <glyph glyph-name="three" unicode="3" horiz-adv-x="1142" 
d="M455 221q121 0 187 75t67 200q0 225 -189 225q-63 0 -131 -31l-74 135l336 387h-446l41 222h823l-16 -91l-430 -456q53 4 59 4q135 0 211 -93t76 -270q-1 -256 -145 -400t-386 -144q-193 0 -313 120q-119 121 -119 295l238 31q27 -209 211 -209z" />
    <glyph glyph-name="four" unicode="4" horiz-adv-x="1210" 
d="M766 1024l-377 -520h277zM827 0h-260l54 266h-615l25 131l805 1037h272l-182 -930h159l-45 -238h-159z" />
    <glyph glyph-name="five" unicode="5" horiz-adv-x="1140" 
d="M727 496q0 228 -180 227q-158 0 -291 -129l-156 33l226 807h751l-45 -238h-532l-90 -299q102 53 202 53q180 0 278 -102t97 -297q0 -258 -151 -414q-152 -154 -404 -153q-188 0 -301 102q-109 104 -108 260q0 33 2 43l249 37q8 -205 210 -205q102 0 172 79q70 80 71 196z
" />
    <glyph glyph-name="six" unicode="6" horiz-adv-x="1185" 
d="M782 477q0 203 -196 203q-96 0 -178 -78t-82 -176t52 -152t146 -53q94 0 176 77t82 179zM662 918q176 0 278 -106t102 -294q0 -252 -158 -393t-399 -141q-186 0 -305 108q-114 111 -114 290t135 353l549 715h297l-418 -532h33z" />
    <glyph glyph-name="seven" unicode="7" horiz-adv-x="1042" 
d="M244 1434h872l-22 -107l-779 -1327h-276l700 1196h-542z" />
    <glyph glyph-name="eight" unicode="8" horiz-adv-x="1144" 
d="M823 1070q0 167 -160 167q-79 0 -143 -59q-64 -58 -63 -138q0 -80 41 -124q42 -44 120 -44t142 58t63 140zM299 409q1 -188 199 -188q96 -1 168 61t72 158t-49 146q-49 49 -145 49t-170 -66t-75 -160zM702 1450q172 0 268 -93t97 -263q0 -106 -61 -196t-154 -130
q59 -31 102 -119t43 -184q0 -213 -127 -336q-152 -145 -424 -145q-176 0 -292 108t-115 259q0 152 75 261t199 166q-43 37 -71 102q-29 65 -29 134q0 184 138 310t351 126z" />
    <glyph glyph-name="nine" unicode="9" horiz-adv-x="1124" 
d="M369 956q1 -202 197 -202q96 0 178 76t81 178q-1 204 -197 204q-96 0 -179 -77q-80 -77 -80 -179zM489 516q-176 0 -278 106t-102 293q0 252 157 394q160 141 400 141q190 0 303 -111q117 -106 117 -286t-136 -355l-549 -714h-297l418 532h-33z" />
    <glyph glyph-name="colon" unicode=":" horiz-adv-x="671" 
d="M207 877q0 75 49 123t123 48t123 -48q49 -50 49 -124t-49 -122q-49 -49 -123 -49t-123 49t-49 123zM66 160q0 74 49 123t123 49t122 -49t50 -123q0 -74 -50 -123t-122 -49q-74 0 -123 49t-49 123z" />
    <glyph glyph-name="semicolon" unicode=";" horiz-adv-x="671" 
d="M59 -319h-176l275 618h336zM207 877q0 75 49 123t123 48t123 -48q49 -50 49 -124t-49 -122q-49 -49 -123 -49t-123 49t-49 123z" />
    <glyph glyph-name="less" unicode="&#x3c;" horiz-adv-x="991" 
d="M866 98l-800 416v242l800 415v-268l-516 -268l516 -268v-269z" />
    <glyph glyph-name="equal" unicode="=" horiz-adv-x="1243" 
d="M1051 340h-895v221h895v-221zM1051 709h-895v221h895v-221z" />
    <glyph glyph-name="greater" unicode="&#x3e;" horiz-adv-x="991" 
d="M125 1171l801 -415v-242l-801 -416v269l516 268l-516 268v268z" />
    <glyph glyph-name="question" unicode="?" horiz-adv-x="935" 
d="M317 -12q-72 0 -121 49t-49 120q1 71 51 121t120 50t119 -50q50 -50 50 -121t-49 -120t-121 -49zM143 671q1 105 55 163t185 112l192 80q100 49 101 117q0 43 -29 69t-82 25q-135 0 -203 -166l-223 53q49 150 169 238t277 88t245 -76t88 -215q0 -195 -201 -272l-254 -96
q-101 -34 -101 -99q0 -33 18 -52t50 -19q72 0 131 102l174 -61q-111 -225 -334 -226q-117 0 -187 65t-71 170z" />
    <glyph glyph-name="at" unicode="@" horiz-adv-x="1880" 
d="M961 844q-102 0 -170 -78t-68 -164t38 -127t105 -41q106 0 178 70t72 178q1 162 -155 162zM487 567q-1 223 143 357t353 133q145 0 223 -78l31 63h170l-96 -448q-14 -66 -15 -86q0 -74 76 -74q160 0 160 328q0 248 -130 372t-378 123q-293 0 -480 -187t-188 -503
q0 -270 157 -408q157 -139 399 -139t550 140l62 -209q-188 -80 -326 -112t-305 -32q-342 0 -562 199t-220 549q0 416 258 666q260 250 669 249q322 0 531 -178t209 -493q0 -260 -111 -419t-332 -159q-76 0 -137 36t-86 97q-121 -133 -286 -133t-252 92t-87 254z" />
    <glyph glyph-name="A" unicode="A" horiz-adv-x="1224" 
d="M752 584l-56 506l-247 -506h303zM1104 0h-287l-37 338h-454l-172 -338h-289l766 1434h262z" />
    <glyph glyph-name="B" unicode="B" horiz-adv-x="1263" 
d="M694 631h-250l-73 -385h258q119 0 187 54t69 159q-1 172 -191 172zM770 1188h-217l-59 -311h227q96 0 153 43t58 124q0 144 -162 144zM838 1434q168 0 265 -85t97 -241q0 -111 -55 -200t-150 -130q68 -30 113 -104t45 -174q0 -238 -140 -369t-384 -131h-576l281 1434h504
z" />
    <glyph glyph-name="C" unicode="C" horiz-adv-x="1421" 
d="M344 610q0 -182 86 -281t224 -99t228 65q91 66 169 213l235 -74q-98 -233 -260 -342q-162 -108 -402 -108t-396 165q-157 165 -156 439q0 354 233 608q236 254 596 254q225 0 359 -127t153 -326l-252 -61q-29 139 -103 204q-75 65 -204 64q-222 0 -366 -181t-144 -413z
" />
    <glyph glyph-name="D" unicode="D" horiz-adv-x="1392" 
d="M483 246q260 0 409 156t148 413q0 197 -99 285t-290 88h-98l-182 -942h112zM489 0h-436l281 1434h407q256 0 416 -150t160 -426q-1 -398 -229 -628t-599 -230z" />
    <glyph glyph-name="E" unicode="E" horiz-adv-x="1175" 
d="M53 0l281 1434h866l-49 -246h-598l-57 -301h475l-49 -246h-476l-75 -395h618l-49 -246h-887z" />
    <glyph glyph-name="F" unicode="F" horiz-adv-x="1146" 
d="M53 0l281 1434h880l-49 -246h-612l-64 -328h488l-47 -246h-488l-120 -614h-269z" />
    <glyph glyph-name="G" unicode="G" horiz-adv-x="1486" 
d="M985 0v141q-129 -157 -365 -157t-392 158q-157 158 -156 436q-6 368 223 622t598 250q219 0 350 -120t162 -333l-250 -65q-45 139 -118 206t-193 66q-217 0 -357 -172q-139 -174 -139 -416q0 -182 87 -284t229 -102t240 75q97 76 143 201h-267l43 217h525l-142 -723h-221
z" />
    <glyph glyph-name="H" unicode="H" horiz-adv-x="1458" 
d="M322 0h-269l281 1434h268l-106 -545h534l107 545h268l-281 -1434h-268l127 643h-534z" />
    <glyph glyph-name="I" unicode="I" horiz-adv-x="655" 
d="M334 1434h268l-280 -1434h-269z" />
    <glyph glyph-name="J" unicode="J" horiz-adv-x="1132" 
d="M-23 387l263 51q0 -94 43 -151t120 -58q186 0 234 246l186 959h269l-201 -1031q-41 -209 -161 -315t-351 -104q-186 0 -294 118t-108 285z" />
    <glyph glyph-name="K" unicode="K" horiz-adv-x="1304" 
d="M53 0l281 1434h268l-106 -531l544 531h342l-684 -650l461 -784h-328l-378 682l-131 -682h-269z" />
    <glyph glyph-name="L" unicode="L" horiz-adv-x="1060" 
d="M53 0l281 1434h268l-231 -1188h585l-49 -246h-854z" />
    <glyph glyph-name="M" unicode="M" horiz-adv-x="1644" 
d="M322 0h-269l281 1434h301l147 -895l494 895h315l-280 -1434h-269l170 868l-403 -737h-195l-120 754z" />
    <glyph glyph-name="N" unicode="N" horiz-adv-x="1458" 
d="M952 487l185 947h268l-281 -1434h-282l-336 946l-184 -946h-269l281 1434h282z" />
    <glyph glyph-name="O" unicode="O" horiz-adv-x="1499" 
d="M653 229q199 0 340 164q154 182 154 434q0 177 -79 277t-226 100q-198 0 -346 -172t-148 -426q0 -178 79 -278t226 -99zM633 -16q-238 0 -400 156t-161 446q0 358 198 594q225 270 592 270q236 0 399 -157t162 -445q0 -358 -198 -594q-225 -270 -592 -270z" />
    <glyph glyph-name="P" unicode="P" horiz-adv-x="1220" 
d="M705 807q117 0 187 60q70 59 69 149q0 172 -166 172h-242l-74 -381h226zM662 561h-230l-110 -561h-269l281 1434h502q186 0 294 -98t107 -281q1 -231 -157 -363t-418 -131z" />
    <glyph glyph-name="Q" unicode="Q" horiz-adv-x="1499" 
d="M348 606q0 -178 79 -278t215 -99q136 0 239 66l-148 184l221 185l121 -150q72 139 72 315q0 175 -79 275t-226 100q-198 0 -346 -172t-148 -426zM72 586q0 358 198 594q225 270 592 270q236 0 399 -157t162 -445q0 -330 -170 -555l103 -125l-221 -184l-91 108
q-176 -108 -412 -108t-399 155q-161 156 -161 447z" />
    <glyph glyph-name="R" unicode="R" horiz-adv-x="1257" 
d="M733 864q95 0 157 54t62 137q0 133 -147 133h-252l-64 -324h244zM842 1434q178 0 280 -92t103 -262q-1 -170 -107 -288t-256 -151l279 -641h-289l-264 618h-146l-120 -618h-269l281 1434h508z" />
    <glyph glyph-name="S" unicode="S" horiz-adv-x="1105" 
d="M641 1204q-68 0 -109 -40q-40 -40 -40 -104t48 -112t180 -116t195 -146q70 -78 70 -233q0 -229 -154 -353q-79 -66 -167 -92t-222 -24q-172 0 -297 122q-123 123 -122 283l227 123q27 -283 256 -283q94 -1 148 51t54 135t-42 130q-43 47 -173 117t-200 162
q-70 91 -70 225q0 181 124 291t319 110q136 0 242 -76t141 -192l-222 -123q-59 145 -186 145z" />
    <glyph glyph-name="T" unicode="T" horiz-adv-x="1073" 
d="M489 1188h-389l50 246h1046l-49 -246h-389l-232 -1188h-268z" />
    <glyph glyph-name="U" unicode="U" horiz-adv-x="1394" 
d="M549 -16q-195 0 -313 110t-117 305q0 59 16 146l172 889h268l-172 -893q-12 -66 -12 -109q0 -96 52 -149t153 -54q256 0 317 312l172 893h271l-172 -889q-59 -299 -214 -430t-421 -131z" />
    <glyph glyph-name="V" unicode="V" horiz-adv-x="1196" 
d="M1339 1434l-757 -1434h-269l-204 1434h290l115 -1061l528 1061h297z" />
    <glyph glyph-name="W" unicode="W" horiz-adv-x="1851" 
d="M1221 379l442 1055h283l-648 -1434h-272l-90 842l-404 -842h-268l-104 1434h282l37 -1049l418 897h236z" />
    <glyph glyph-name="X" unicode="X" horiz-adv-x="1163" 
d="M662 1014l311 420h291l-502 -674l282 -760h-276l-193 520l-399 -520h-299l600 772l-254 662h291z" />
    <glyph glyph-name="Y" unicode="Y" horiz-adv-x="1040" 
d="M354 610l-256 824h283l149 -557l373 557h287l-569 -824l-117 -610h-268z" />
    <glyph glyph-name="Z" unicode="Z" horiz-adv-x="1181" 
d="M788 1188h-587l49 246h956l-24 -123l-822 -1065h648l-50 -246h-1017l24 123z" />
    <glyph glyph-name="bracketleft" unicode="[" horiz-adv-x="722" 
d="M508 -102h-471l315 1638h473l-43 -221h-225l-231 -1196h225z" />
    <glyph glyph-name="backslash" unicode="\" horiz-adv-x="954" 
d="M639 -102l-571 1638h256l571 -1638h-256z" />
    <glyph glyph-name="bracketright" unicode="]" horiz-adv-x="722" 
d="M274 1536h474l-318 -1638h-471l43 221h223l232 1196h-226z" />
    <glyph glyph-name="asciicircum" unicode="^" horiz-adv-x="1253" 
d="M129 825l401 609h220l401 -609h-250l-260 387l-262 -387h-250z" />
    <glyph glyph-name="underscore" unicode="_" horiz-adv-x="1026" 
d="M829 -221h-931l43 221h931z" />
    <glyph glyph-name="grave" unicode="`" horiz-adv-x="468" 
d="M102 1450h344l72 -303h-194z" />
    <glyph glyph-name="a" unicode="a" horiz-adv-x="1234" 
d="M627 831q-143 1 -227 -119t-83 -249q-1 -129 51 -196t138 -66q145 1 227 119t82 284q0 109 -50 168t-138 59zM635 1049q74 0 136 -30t93 -75l17 88h256l-199 -1032h-256l20 106q-34 -46 -112 -84t-162 -38q-182 0 -285 116q-98 121 -98 301q0 291 156 467
q155 181 434 181z" />
    <glyph glyph-name="b" unicode="b" horiz-adv-x="1236" 
d="M559 201q137 0 216 120t79 252t-50 195t-138 63q-137 0 -222 -114q-84 -115 -84 -253q0 -264 199 -263zM1126 621q0 -276 -147 -459q-147 -178 -414 -178q-85 0 -153 36t-97 86l-22 -106h-256l282 1450h256l-100 -512q119 111 283 111q164 1 266 -113t102 -315z" />
    <glyph glyph-name="c" unicode="c" horiz-adv-x="1144" 
d="M45 416q0 256 172 444t449 189q332 0 405 -297l-233 -86q-47 166 -215 165q-141 0 -226 -120q-80 -121 -80 -277q0 -233 185 -233q149 0 274 178l203 -86q-92 -164 -217 -237q-124 -72 -310 -72t-296 122t-111 310z" />
    <glyph glyph-name="d" unicode="d" horiz-adv-x="1261" 
d="M629 831q-145 0 -229 -120t-83 -252t51 -195t140 -63q143 0 225 131t82 257q0 242 -186 242zM616 1049q84 0 153 -32t95 -79l101 512h256l-283 -1450h-256l23 106q-93 -122 -273 -122t-284 114q-103 115 -103 312q0 281 154 458q153 181 417 181z" />
    <glyph glyph-name="e" unicode="e" horiz-adv-x="1161" 
d="M621 831q-90 0 -164 -55t-111 -141h471q-12 196 -196 196zM297 434v-33q0 -86 57 -143t152 -57q162 0 282 176l203 -105q-100 -152 -220 -220q-121 -68 -301 -68t-306 122q-123 124 -123 352t169 409t443 182q199 0 307 -118t107 -296q0 -63 -8 -96l-21 -105h-741z" />
    <glyph glyph-name="f" unicode="f" horiz-adv-x="733" 
d="M643 1233q-113 0 -137 -129l-12 -72h217l-43 -217h-217l-158 -815h-256l158 815h-132l43 217h132l10 55q72 362 422 363q106 0 188 -47l-94 -205q-53 35 -121 35z" />
    <glyph glyph-name="g" unicode="g" horiz-adv-x="1087" 
d="M412 690q0 -128 132 -129q66 0 112 42q46 41 46 107q0 132 -130 132q-64 0 -112 -44t-48 -108zM487 12h-151q-76 0 -117 8q-43 -43 -43 -104t54 -97t151 -36q244 0 244 127q-1 102 -138 102zM172 653q0 166 117 281q119 115 303 115q135 0 213 -45l213 102l78 -162
l-170 -80q16 -53 16 -114q0 -184 -118 -288t-312 -106q-92 0 -166 27q-66 -29 -65 -84q1 -31 23 -53t58 -21h226q137 1 215 -69t78 -199q1 -195 -145 -293t-360 -98t-326 85t-111 228q0 143 122 232q-37 39 -36 120q0 170 192 258q-45 70 -45 164z" />
    <glyph glyph-name="h" unicode="h" horiz-adv-x="1216" 
d="M813 715q0 117 -125 116q-98 0 -186 -104t-125 -291l-84 -436h-256l280 1450h256l-112 -584q160 182 354 183q123 0 196 -67t72 -177q0 -41 -8 -84l-139 -721h-256l125 647q8 41 8 68z" />
    <glyph glyph-name="i" unicode="i" horiz-adv-x="589" 
d="M250 1329q0 70 47 117t117 47t116 -47t48 -117q0 -70 -48 -117t-116 -47q-70 0 -117 47t-47 117zM37 0l201 1032h256l-201 -1032h-256z" />
    <glyph glyph-name="j" unicode="j" horiz-adv-x="589" 
d="M250 1329q0 70 47 117t117 47t116 -47t48 -117q0 -70 -48 -117t-116 -47q-70 0 -117 47t-47 117zM41 27l195 1005h256l-197 -1024q-43 -219 -163 -320t-347 -122l-27 223q125 31 192 84q66 54 91 154z" />
    <glyph glyph-name="k" unicode="k" horiz-adv-x="1087" 
d="M37 0l280 1450h256l-153 -799l373 381h311l-486 -477l322 -555h-299l-254 481l-94 -481h-256z" />
    <glyph glyph-name="l" unicode="l" horiz-adv-x="643" 
d="M51 0l281 1450h256l-281 -1450h-256z" />
    <glyph glyph-name="m" unicode="m" horiz-adv-x="1759" 
d="M766 735q0 96 -95 96q-95 1 -177 -113t-123 -317l-78 -401h-256l201 1032h256l-31 -153q123 170 315 170q104 -1 171 -55t79 -158q160 213 342 213q123 1 190 -61t66 -177q0 -39 -8 -80l-141 -731h-256l133 688q4 29 4 47q0 96 -96 96t-180 -114q-82 -115 -119 -316
l-78 -401h-256l133 688q4 29 4 47z" />
    <glyph glyph-name="n" unicode="n" horiz-adv-x="1198" 
d="M1065 817q0 -45 -8 -80l-144 -737h-256l129 662q6 36 6 74t-29 67q-30 29 -81 28q-100 1 -186 -113t-123 -306l-80 -412h-256l201 1032h256l-33 -166q145 182 346 183q123 -1 191 -61t67 -171z" />
    <glyph glyph-name="o" unicode="o" horiz-adv-x="1204" 
d="M621 831q-145 0 -228 -110q-76 -93 -76 -237q1 -144 55 -214t146 -69q145 0 227 110q76 93 76 237t-54 214t-146 69zM45 420q0 295 176 465q91 90 189 127t233 37q205 0 328 -124t123 -313q0 -295 -176 -465q-92 -90 -190 -127t-232 -36q-205 0 -328 122
q-123 128 -123 314z" />
    <glyph glyph-name="p" unicode="p" horiz-adv-x="1249" 
d="M555 201q145 0 228 120t83 252t-50 195t-140 63q-143 0 -225 -131t-82 -257q0 -242 186 -242zM567 -16q-85 0 -153 32t-95 78l-100 -512h-256l283 1450h256l-23 -106q93 123 273 123t283 -115t104 -311q0 -279 -154 -459t-418 -180z" />
    <glyph glyph-name="q" unicode="q" horiz-adv-x="1228" 
d="M612 831q-137 0 -217 -120q-78 -121 -78 -253q1 -132 51 -194q50 -63 138 -63q139 -1 222 113t83 276q0 115 -52 178q-53 63 -147 63zM45 412q-1 280 147 458t414 179q86 0 154 -36t96 -87l23 106h256l-283 -1450h-256l100 512q-118 -110 -282 -110t-267 113
q-102 114 -102 315z" />
    <glyph glyph-name="r" unicode="r" horiz-adv-x="917" 
d="M786 1049q72 0 134 -27l-86 -229q-41 29 -105 28q-105 1 -213 -113t-151 -341l-72 -367h-256l201 1032h256l-31 -153q135 170 323 170z" />
    <glyph glyph-name="s" unicode="s" horiz-adv-x="940" 
d="M537 1049q106 0 196 -52q92 -49 125 -125l-182 -131q-53 90 -158 90q-43 -1 -72 -25q-28 -24 -28 -67t43 -69q18 -14 41 -25l94 -41q104 -47 158 -108t55 -154q0 -176 -109 -267t-287 -91t-276 94t-123 209l217 90q43 -176 201 -176q57 -1 94 27t37 74t-39 79t-137 78
q-211 100 -211 274q0 145 96 231q97 85 265 85z" />
    <glyph glyph-name="t" unicode="t" horiz-adv-x="757" 
d="M375 -16q-119 0 -194 76t-75 210q0 61 9 95l88 450h-160l41 217h160l51 262l285 156l-80 -418h248l-41 -217h-248l-88 -446q-8 -43 -9 -58q0 -111 111 -110q43 0 96 24l17 -198q-92 -43 -211 -43z" />
    <glyph glyph-name="u" unicode="u" horiz-adv-x="1206" 
d="M342 -16q-122 0 -190 60t-68 171q0 45 8 80l144 737h256l-130 -661q-6 -35 -6 -60q0 -111 111 -110q100 -1 186 113t123 307l80 411h256l-201 -1032h-256l33 166q-145 -182 -346 -182z" />
    <glyph glyph-name="v" unicode="v" horiz-adv-x="933" 
d="M199 0l-156 1032h256l68 -713l350 713h256l-537 -1032h-237z" />
    <glyph glyph-name="w" unicode="w" horiz-adv-x="1538" 
d="M967 332l309 700h268l-520 -1032h-231l-37 668l-299 -668h-234l-125 1032h262l35 -700l301 700h242z" />
    <glyph glyph-name="x" unicode="x" horiz-adv-x="1005" 
d="M532 758l228 274h268l-395 -495l223 -537h-256l-135 340l-281 -340h-268l449 561l-199 471h268z" />
    <glyph glyph-name="y" unicode="y" horiz-adv-x="1009" 
d="M244 57l-168 975h256l102 -647l340 647h268l-806 -1450h-256z" />
    <glyph glyph-name="z" unicode="z" horiz-adv-x="948" 
d="M547 815h-416l41 217h748l-19 -98l-555 -717h461l-41 -217h-799l17 98z" />
    <glyph glyph-name="braceleft" unicode="{" horiz-adv-x="712" 
d="M606 1536h180l-43 -221h-55q-50 1 -70 -19t-30 -73l-60 -305q-35 -180 -190 -201q119 -18 119 -125q0 -41 -8 -76l-60 -305q-2 -8 -2 -29q0 -63 70 -63h55l-43 -221h-180q-80 0 -125 41t-45 118l4 45l65 340q8 39 8 81q0 43 -31 63q-32 20 -108 20l43 221q94 0 136 34
q41 34 61 130l65 340q16 93 81 149t163 56z" />
    <glyph glyph-name="bar" unicode="|" horiz-adv-x="557" 
d="M186 -102v1638h250v-1638h-250z" />
    <glyph glyph-name="braceright" unicode="}" horiz-adv-x="712" 
d="M25 119q49 0 69 19t31 73l59 305q23 106 66 148t127 53q-121 16 -121 125q0 41 8 76l60 305q4 37 4 39q0 53 -66 53h-61l43 221h180q172 0 172 -154q0 -18 -6 -51l-66 -340q-8 -47 -8 -65q0 -58 30 -78t109 -21l-43 -221q-92 0 -134 -35t-62 -129l-66 -340
q-37 -205 -229 -204h-193l43 221h54z" />
    <glyph glyph-name="asciitilde" unicode="~" horiz-adv-x="1343" 
d="M470 879q96 -1 209 -61q114 -60 179 -60q100 0 203 104l108 -141q-57 -100 -156 -164q-99 -63 -193 -63t-210 60q-115 60 -180 60q-103 0 -203 -104l-108 141q57 98 156 163t195 65z" />
    <glyph glyph-name="uni00A0" unicode="&#xa0;" horiz-adv-x="452" 
 />
    <glyph glyph-name="exclamdown" unicode="&#xa1;" horiz-adv-x="755" 
d="M410 1028q72 0 121 -49t49 -120t-50 -121t-120 -50t-120 50t-50 121t49 120t121 49zM457 520l-125 -938h-336l240 938h221z" />
    <glyph glyph-name="cent" unicode="&#xa2;" horiz-adv-x="1169" 
d="M106 621q0 223 132 398t356 222l55 295h252l-57 -295q229 -45 289 -285l-234 -86q-47 166 -215 166q-141 0 -223 -121t-82 -276q0 -233 184 -233q148 0 275 178l202 -86q-152 -260 -399 -301l-57 -299h-252l61 307q-135 37 -211 149t-76 267z" />
    <glyph glyph-name="sterling" unicode="&#xa3;" horiz-adv-x="1157" 
d="M258 627h-170l45 237h94q-4 61 -4 92q0 230 132 362t370 132q158 0 262 -79t139 -222l-233 -96q-43 160 -188 159q-113 0 -175 -82t-61 -229v-37h352l-45 -237h-280q0 -27 -16 -108q-32 -162 -210 -296q102 57 193 58q45 0 108 -31t109 -31q76 0 182 137l158 -145
q-88 -125 -175 -176t-185 -51t-190 38q-91 38 -146 37q-109 0 -252 -75l-109 155q143 115 219 219t76 226v43z" />
    <glyph glyph-name="currency" unicode="&#xa4;" horiz-adv-x="1187" 
d="M567 811q-78 0 -123 -49t-45 -132t45 -134q47 -50 123 -50t123 50q45 51 45 134t-45 132t-123 49zM156 629q0 111 51 202l-182 142l198 198l142 -182q91 53 203 53t202 -53l141 182l199 -198l-182 -142q51 -93 51 -203t-51 -202l182 -141l-199 -199l-141 182
q-90 -53 -203 -53t-202 53l-142 -182l-198 199l182 141q-51 92 -51 203z" />
    <glyph glyph-name="yen" unicode="&#xa5;" horiz-adv-x="1185" 
d="M399 831l-176 603h285l135 -560l365 560h286l-413 -603h186l-43 -221h-293l-29 -147h293l-43 -221h-293l-47 -242h-268l47 242h-293l43 221h293l29 147h-293l43 221h186z" />
    <glyph glyph-name="brokenbar" unicode="&#xa6;" horiz-adv-x="557" 
d="M436 1536v-715h-250v715h250zM186 -102v714h250v-714h-250z" />
    <glyph glyph-name="section" unicode="&#xa7;" horiz-adv-x="1206" 
d="M780 457q0 63 -69 112q-47 35 -156 95l-88 47q-102 -49 -102 -152q0 -63 69 -113q42 -31 156 -94l88 -47q102 49 102 152zM1010 481q0 -199 -197 -317q45 -84 45 -182q0 -188 -120 -302t-318 -114q-158 0 -259 86t-122 237l240 74q12 -76 60 -118q47 -42 113 -42t110 44
t44 115t-51 122q-20 23 -90 63l-141 82q-98 57 -144 128q-45 71 -45 178q0 199 197 317q-45 84 -45 182q0 188 120 302t318 114q158 0 259 -86t122 -238l-240 -73q-12 75 -60 117t-114 42t-109 -44q-44 -44 -44 -117q-8 -57 49 -119q12 -12 92 -66l141 -80q97 -57 143 -128
t46 -177z" />
    <glyph glyph-name="dieresis" unicode="&#xa8;" horiz-adv-x="739" 
d="M532 1333q0 63 41 105t105 41q64 0 104 -41q41 -40 41 -104t-41 -105q-40 -41 -104 -41t-105 41t-41 104zM109 1333q0 63 41 105t104 41q63 0 104 -41q41 -40 41 -104t-41 -105t-104 -41t-104 41t-41 104z" />
    <glyph glyph-name="copyright" unicode="&#xa9;" horiz-adv-x="1839" 
d="M906 274q-160 0 -279 117t-119 326t119 325t279 117q160 0 265 -76q106 -76 127 -213l-198 -39q-43 133 -180 134q-82 0 -134 -70q-52 -71 -53 -179q0 -108 52 -178t135 -69q137 0 180 133l198 -39q-20 -137 -126 -213t-266 -76zM356 717q0 -254 158 -418t406 -164
t406 164t157 418q0 254 -158 418q-157 164 -405 164t-406 -164t-158 -418zM131 716q0 338 225 570q226 230 564 230t563 -230t225 -569t-225 -569t-563 -230t-564 229q-225 231 -225 569z" />
    <glyph glyph-name="ordfeminine" unicode="&#xaa;" horiz-adv-x="874" 
d="M457 967q-63 0 -101 -31t-37 -74q0 -44 23 -66t61 -22q76 0 133 48q56 48 56 122v23h-135zM791 1102v-488h-166l-19 107q-98 -115 -250 -115q-106 0 -176 67t-70 183t97 190q96 73 250 72h135v35q0 119 -141 119q-109 0 -142 -94l-168 39q19 100 103 162t207 63
q340 0 340 -340z" />
    <glyph glyph-name="guillemotleft" unicode="&#xab;" horiz-adv-x="1484" 
d="M606 104l-547 447l33 180l721 434l-55 -293l-420 -247l317 -265zM1241 104l-547 447l33 180l721 434l-55 -293l-420 -247l317 -265z" />
    <glyph glyph-name="logicalnot" unicode="&#xac;" horiz-adv-x="1146" 
d="M772 604h-700v230h954v-543h-254v313z" />
    <glyph glyph-name="uni00AD" unicode="&#xad;" horiz-adv-x="1034" 
d="M862 539h-764l43 221h764z" />
    <glyph glyph-name="registered" unicode="&#xae;" horiz-adv-x="1839" 
d="M926 985h-111v-164h111q98 0 98 82t-98 82zM815 653v-372h-215v872h346q291 0 291 -250q0 -205 -182 -239l239 -383h-231l-223 372h-25zM356 717q0 -254 158 -418t406 -164t406 164t157 418q0 254 -158 418q-157 164 -405 164t-406 -164t-158 -418zM131 716
q0 338 225 570q226 230 564 230t563 -230t225 -569t-225 -569t-563 -230t-564 229q-225 231 -225 569z" />
    <glyph glyph-name="overscore" unicode="&#xaf;" horiz-adv-x="620" 
d="M676 1266h-551l43 225h551z" />
    <glyph glyph-name="degree" unicode="&#xb0;" horiz-adv-x="737" 
d="M367 1214q-1 -38 21 -60t58 -22t59 24q21 22 21 58t-21 60q-21 23 -58 23t-59 -23t-21 -60zM446 966q-108 0 -179 71t-71 176t72 178q72 71 178 71t179 -71q71 -71 71 -177t-70 -177q-72 -71 -180 -71z" />
    <glyph glyph-name="plusminus" unicode="&#xb1;" horiz-adv-x="1406" 
d="M1098 0h-975l43 221h975zM684 928l74 377h223l-74 -377h377l-43 -221h-377l-73 -377h-224l74 377h-377l43 221h377z" />
    <glyph glyph-name="uni00B2" unicode="&#xb2;" horiz-adv-x="858" 
d="M801 1220q0 -104 -121 -231l-203 -205h256l-33 -170h-561l13 72l385 379q70 70 69 135q0 33 -19 52t-52 20q-84 0 -121 -115l-172 47q35 113 117 175q83 63 195 63t180 -58q68 -60 67 -164z" />
    <glyph glyph-name="uni00B3" unicode="&#xb3;" horiz-adv-x="872" 
d="M462 776q50 0 83 34t33 86t-25 81t-64 29t-77 -21l-62 102l166 177h-237l32 170h506l-14 -72l-228 -234q85 0 139 -57t54 -151q0 -138 -87 -226t-221 -88t-210 74t-76 188l164 21q8 -53 41 -83t83 -30z" />
    <glyph glyph-name="acute" unicode="&#xb4;" horiz-adv-x="487" 
d="M276 1147h-194l190 303h344z" />
    <glyph glyph-name="mu" unicode="&#xb5;" horiz-adv-x="1216" 
d="M1020 1032v-1032h-254v166q-127 -182 -320 -182q-33 0 -63 6v-408h-254v1450h254v-661q0 -170 147 -170q100 1 168 115t68 305v411h254z" />
    <glyph glyph-name="mu" unicode="&#x3bc;" horiz-adv-x="1216" 
d="M1020 1032v-1032h-254v166q-127 -182 -320 -182q-33 0 -63 6v-408h-254v1450h254v-661q0 -170 147 -170q100 1 168 115t68 305v411h254z" />
    <glyph glyph-name="paragraph" unicode="&#xb6;" horiz-adv-x="1538" 
d="M147 938q0 242 156 369t408 127h796l-43 -222h-127l-315 -1630h-248l316 1630h-175l-315 -1630h-248l178 922q-158 0 -270 128t-113 306z" />
    <glyph glyph-name="middot" unicode="&#xb7;" horiz-adv-x="620" 
d="M320 926q74 0 122 -49q50 -49 50 -123t-50 -123t-122 -49q-74 0 -123 49t-50 123t49 123t124 49z" />
    <glyph glyph-name="cedilla" unicode="&#xb8;" horiz-adv-x="473" 
d="M209 -123h180l-250 -422l-272 135z" />
    <glyph glyph-name="uni00B9" unicode="&#xb9;" horiz-adv-x="698" 
d="M213 1300l305 134h78l-158 -820h-184l111 570l-191 -80z" />
    <glyph glyph-name="ordmasculine" unicode="&#xba;" horiz-adv-x="880" 
d="M279 1024q0 -104 54 -176t148 -72q95 0 149 71t54 177t-54 177t-148 71t-149 -72q-54 -72 -54 -176zM481 1442q190 0 301 -118t111 -299t-111 -300t-301 -119t-301 119q-110 119 -110 300t110 299t301 118z" />
    <glyph glyph-name="guillemotright" unicode="&#xbb;" horiz-adv-x="1484" 
d="M866 1165l547 -446l-33 -180l-721 -435l56 293l420 248l-318 264zM231 1165l547 -446l-33 -180l-720 -435l55 293l420 248l-318 264z" />
    <glyph glyph-name="onequarter" unicode="&#xbc;" horiz-adv-x="1841" 
d="M1405 553l-178 -250h129zM1483 0h-185l25 133h-354l18 92l449 594h204l-100 -516h96l-32 -170h-97zM201 1300l305 134h78l-158 -820h-184l110 570l-190 -80zM139 43l1387 1473l129 -125l-1387 -1473z" />
    <glyph glyph-name="onehalf" unicode="&#xbd;" horiz-adv-x="1943" 
d="M1473 657q-84 0 -121 -114l-172 47q35 113 117 175q83 62 195 62t180 -58t67 -163q0 -105 -121 -231l-203 -205h256l-33 -170h-561l13 72l385 379q70 70 69 135q0 33 -19 52t-52 19zM201 1300l305 134h78l-158 -820h-184l110 570l-190 -80zM139 43l1387 1473l129 -125
l-1387 -1473z" />
    <glyph glyph-name="threequarters" unicode="&#xbe;" horiz-adv-x="1988" 
d="M1513 553l-178 -250h129zM1591 0h-184l25 133h-355l19 92l448 594h205l-100 -516h96l-33 -170h-96zM462 776q50 0 83 34t33 86t-25 81t-64 29t-77 -21l-62 102l166 177h-237l32 170h506l-14 -72l-228 -234q85 0 139 -57t54 -151q0 -138 -87 -226t-221 -88t-210 74
t-76 188l164 21q8 -53 41 -83t83 -30zM287 43l1386 1473l129 -125l-1386 -1473z" />
    <glyph glyph-name="questiondown" unicode="&#xbf;" horiz-adv-x="935" 
d="M731 859q0 -71 -50 -121t-120 -50t-120 50t-50 121t49 120t121 49t121 -49t49 -120zM203 -127q1 -43 29 -69t81 -25q135 0 203 166l223 -54q-49 -149 -169 -237t-276 -88t-245 76q-88 76 -88 215q0 195 201 272l254 96q100 34 100 99q0 33 -18 52t-49 19q-73 0 -132 -102
l-174 61q111 225 334 226q117 0 188 -65t71 -170t-55 -163q-54 -58 -185 -112l-193 -80q-100 -49 -100 -117z" />
    <glyph glyph-name="Agrave" unicode="&#xc0;" horiz-adv-x="1224" 
d="M504 1851h344l72 -303h-195zM752 584l-56 506l-247 -506h303zM1104 0h-287l-37 338h-454l-172 -338h-289l766 1434h262z" />
    <glyph glyph-name="Aacute" unicode="&#xc1;" horiz-adv-x="1224" 
d="M803 1548h-195l191 303h344zM752 584l-56 506l-247 -506h303zM1104 0h-287l-37 338h-454l-172 -338h-289l766 1434h262z" />
    <glyph glyph-name="Acircumflex" unicode="&#xc2;" horiz-adv-x="1224" 
d="M635 1561h-262l409 381h84l271 -381h-248l-103 135zM752 584l-56 506l-247 -506h303zM1104 0h-287l-37 338h-454l-172 -338h-289l766 1434h262z" />
    <glyph glyph-name="Atilde" unicode="&#xc3;" horiz-adv-x="1224" 
d="M926 1774q49 0 131 88l125 -113q-51 -82 -128 -130t-152 -48q-74 0 -146 42t-121 42t-131 -88l-125 112q51 82 128 130q77 49 152 49t147 -42t120 -42zM752 584l-56 506l-247 -506h303zM1104 0h-287l-37 338h-454l-172 -338h-289l766 1434h262z" />
    <glyph glyph-name="Adieresis" unicode="&#xc4;" horiz-adv-x="1224" 
d="M887 1734q0 64 41 105t104 41q62 0 104 -41t42 -104t-41 -105t-105 -41q-64 0 -104 41q-41 40 -41 104zM463 1734q0 64 41 105t104 41q62 0 104 -41t42 -104t-41 -105t-105 -41q-64 0 -104 41q-41 40 -41 104zM752 584l-56 506l-247 -506h303zM1104 0h-287l-37 338h-454
l-172 -338h-289l766 1434h262z" />
    <glyph glyph-name="Aring" unicode="&#xc5;" horiz-adv-x="1224" 
d="M813 1808q-61 0 -61 -66t61 -65q61 -1 61 65t-61 66zM1024 1743q0 -89 -59 -149t-151 -60t-152 59t-60 149t60 150t151 60t151 -60t60 -149zM752 584l-56 506l-247 -506h303zM1104 0h-287l-37 338h-454l-172 -338h-289l766 1434h262z" />
    <glyph glyph-name="AE" unicode="&#xc6;" horiz-adv-x="1748" 
d="M838 1079h-27l-297 -495h227zM-135 0l905 1434h1004l-50 -246h-598l-57 -301h475l-49 -246h-475l-76 -395h619l-50 -246h-886l67 338h-327l-203 -338h-299z" />
    <glyph glyph-name="Ccedilla" unicode="&#xc7;" horiz-adv-x="1421" 
d="M614 -123h181l-250 -422l-273 135zM344 610q0 -182 86 -281t224 -99t228 65q91 66 169 213l235 -74q-98 -233 -260 -342q-162 -108 -402 -108t-396 165q-157 165 -156 439q0 354 233 608q236 254 596 254q225 0 359 -127t153 -326l-252 -61q-29 139 -103 204
q-75 65 -204 64q-222 0 -366 -181t-144 -413z" />
    <glyph glyph-name="Egrave" unicode="&#xc8;" horiz-adv-x="1175" 
d="M537 1851h344l71 -303h-194zM53 0l281 1434h866l-49 -246h-598l-57 -301h475l-49 -246h-476l-75 -395h618l-49 -246h-887z" />
    <glyph glyph-name="Eacute" unicode="&#xc9;" horiz-adv-x="1175" 
d="M778 1548h-194l190 303h344zM53 0l281 1434h866l-49 -246h-598l-57 -301h475l-49 -246h-476l-75 -395h618l-49 -246h-887z" />
    <glyph glyph-name="Ecircumflex" unicode="&#xca;" horiz-adv-x="1175" 
d="M662 1561h-263l410 381h84l270 -381h-248l-102 135zM53 0l281 1434h866l-49 -246h-598l-57 -301h475l-49 -246h-476l-75 -395h618l-49 -246h-887z" />
    <glyph glyph-name="Edieresis" unicode="&#xcb;" horiz-adv-x="1175" 
d="M872 1734q0 64 41 105t105 41t104 -41q41 -41 41 -104t-41 -105q-40 -42 -104 -41q-64 0 -105 41q-41 40 -41 104zM594 1880q64 0 104 -41q41 -41 41 -104t-41 -105q-40 -42 -104 -41q-64 0 -105 41q-41 40 -41 104t41 105t105 41zM53 0l281 1434h866l-49 -246h-598
l-57 -301h475l-49 -246h-476l-75 -395h618l-49 -246h-887z" />
    <glyph glyph-name="Igrave" unicode="&#xcc;" horiz-adv-x="655" 
d="M225 1851h344l72 -303h-195zM334 1434h268l-280 -1434h-269z" />
    <glyph glyph-name="Iacute" unicode="&#xcd;" horiz-adv-x="655" 
d="M502 1548h-195l191 303h344zM334 1434h268l-280 -1434h-269z" />
    <glyph glyph-name="Icircumflex" unicode="&#xce;" horiz-adv-x="655" 
d="M350 1561h-262l410 381h84l270 -381h-248l-102 135zM334 1434h268l-280 -1434h-269z" />
    <glyph glyph-name="Idieresis" unicode="&#xcf;" horiz-adv-x="655" 
d="M575 1734q0 64 41 105q40 41 104 41t105 -41t41 -104t-41 -105t-105 -41q-64 0 -104 41q-41 40 -41 104zM152 1734q0 64 41 105t104 41t104 -41t41 -104t-41 -105t-104 -41q-63 0 -104 41q-41 40 -41 104zM334 1434h268l-280 -1434h-269z" />
    <glyph glyph-name="Eth" unicode="&#xd0;" horiz-adv-x="1392" 
d="M483 246q260 0 409 156t148 413q0 197 -99 285t-290 88h-98l-70 -363h242l-43 -217h-242l-69 -362h112zM489 0h-436l119 608h-135l43 217h135l119 609h407q256 0 416 -150t160 -426q-1 -398 -229 -628t-599 -230z" />
    <glyph glyph-name="Ntilde" unicode="&#xd1;" horiz-adv-x="1458" 
d="M1038 1774q48 0 131 88l125 -113q-51 -82 -128 -130q-78 -48 -152 -48t-145 42t-121 42t-132 -88l-124 112q51 82 128 130q76 49 152 49t147 -42t119 -42zM952 487l185 947h268l-281 -1434h-282l-336 946l-184 -946h-269l281 1434h282z" />
    <glyph glyph-name="Ograve" unicode="&#xd2;" horiz-adv-x="1499" 
d="M580 1851h344l71 -303h-194zM653 229q199 0 340 164q154 182 154 434q0 177 -79 277t-226 100q-198 0 -346 -172t-148 -426q0 -178 79 -278t226 -99zM633 -16q-238 0 -400 156t-161 446q0 358 198 594q225 270 592 270q236 0 399 -157t162 -445q0 -358 -198 -594
q-225 -270 -592 -270z" />
    <glyph glyph-name="Oacute" unicode="&#xd3;" horiz-adv-x="1499" 
d="M879 1548h-195l190 303h345zM653 229q199 0 340 164q154 182 154 434q0 177 -79 277t-226 100q-198 0 -346 -172t-148 -426q0 -178 79 -278t226 -99zM633 -16q-238 0 -400 156t-161 446q0 358 198 594q225 270 592 270q236 0 399 -157t162 -445q0 -358 -198 -594
q-225 -270 -592 -270z" />
    <glyph glyph-name="Ocircumflex" unicode="&#xd4;" horiz-adv-x="1499" 
d="M748 1561h-263l410 381h84l270 -381h-248l-102 135zM653 229q199 0 340 164q154 182 154 434q0 177 -79 277t-226 100q-198 0 -346 -172t-148 -426q0 -178 79 -278t226 -99zM633 -16q-238 0 -400 156t-161 446q0 358 198 594q225 270 592 270q236 0 399 -157t162 -445
q0 -358 -198 -594q-225 -270 -592 -270z" />
    <glyph glyph-name="Otilde" unicode="&#xd5;" horiz-adv-x="1499" 
d="M1057 1774q49 0 131 88l125 -113q-51 -82 -128 -130t-152 -48t-147 42t-120 42q-49 0 -131 -88l-125 112q51 82 128 130q77 49 152 49q74 0 146 -42t121 -42zM653 229q199 0 340 164q154 182 154 434q0 177 -79 277t-226 100q-198 0 -346 -172t-148 -426q0 -178 79 -278
t226 -99zM633 -16q-238 0 -400 156t-161 446q0 358 198 594q225 270 592 270q236 0 399 -157t162 -445q0 -358 -198 -594q-225 -270 -592 -270z" />
    <glyph glyph-name="Odieresis" unicode="&#xd6;" horiz-adv-x="1499" 
d="M999 1734q0 64 41 105q40 41 104 41t105 -41t41 -104t-41 -105t-105 -41q-64 0 -104 41q-41 40 -41 104zM575 1734q0 64 41 105q40 41 104 41t105 -41t41 -104t-41 -105t-105 -41q-64 0 -104 41q-41 40 -41 104zM653 229q199 0 340 164q154 182 154 434q0 177 -79 277
t-226 100q-198 0 -346 -172t-148 -426q0 -178 79 -278t226 -99zM633 -16q-238 0 -400 156t-161 446q0 358 198 594q225 270 592 270q236 0 399 -157t162 -445q0 -358 -198 -594q-225 -270 -592 -270z" />
    <glyph glyph-name="multiply" unicode="&#xd7;" horiz-adv-x="1191" 
d="M752 649l325 -323l-157 -158l-324 326l-324 -326l-157 158l325 323l-325 324l157 157l324 -325l324 325l157 -157z" />
    <glyph glyph-name="Oslash" unicode="&#xd8;" horiz-adv-x="1499" 
d="M348 606q0 -84 14 -139l658 684q-72 53 -178 53q-198 0 -346 -172t-148 -426zM653 229q199 0 340 164q154 182 154 434q0 66 -17 142l-657 -686q71 -54 180 -54zM633 -16q-201 0 -344 108l-183 -190l-149 143l195 203q-80 137 -80 338q0 358 198 594q225 270 592 270
q197 0 342 -109l182 191l150 -143l-195 -203q82 -143 82 -338q0 -358 -198 -594q-225 -270 -592 -270z" />
    <glyph glyph-name="Ugrave" unicode="&#xd9;" horiz-adv-x="1394" 
d="M582 1851h344l71 -303h-194zM549 -16q-195 0 -313 110t-117 305q0 59 16 146l172 889h268l-172 -893q-12 -66 -12 -109q0 -96 52 -149t153 -54q256 0 317 312l172 893h271l-172 -889q-59 -299 -214 -430t-421 -131z" />
    <glyph glyph-name="Uacute" unicode="&#xda;" horiz-adv-x="1394" 
d="M856 1548h-194l190 303h344zM549 -16q-195 0 -313 110t-117 305q0 59 16 146l172 889h268l-172 -893q-12 -66 -12 -109q0 -96 52 -149t153 -54q256 0 317 312l172 893h271l-172 -889q-59 -299 -214 -430t-421 -131z" />
    <glyph glyph-name="Ucircumflex" unicode="&#xdb;" horiz-adv-x="1394" 
d="M729 1561h-262l410 381h84l270 -381h-248l-102 135zM549 -16q-195 0 -313 110t-117 305q0 59 16 146l172 889h268l-172 -893q-12 -66 -12 -109q0 -96 52 -149t153 -54q256 0 317 312l172 893h271l-172 -889q-59 -299 -214 -430t-421 -131z" />
    <glyph glyph-name="Udieresis" unicode="&#xdc;" horiz-adv-x="1394" 
d="M942 1734q0 64 41 105t104 41t105 -41t41 -104q0 -63 -41 -105q-40 -42 -104 -41q-64 0 -105 41q-41 40 -41 104zM518 1734q0 64 41 105t105 41t104 -41q41 -41 41 -104t-41 -105q-40 -42 -104 -41q-64 0 -105 41q-41 40 -41 104zM549 -16q-195 0 -313 110t-117 305
q0 59 16 146l172 889h268l-172 -893q-12 -66 -12 -109q0 -96 52 -149t153 -54q256 0 317 312l172 893h271l-172 -889q-59 -299 -214 -430t-421 -131z" />
    <glyph glyph-name="Yacute" unicode="&#xdd;" horiz-adv-x="1040" 
d="M670 1548h-195l191 303h344zM354 610l-256 824h283l149 -557l373 557h287l-569 -824l-117 -610h-268z" />
    <glyph glyph-name="Thorn" unicode="&#xde;" horiz-adv-x="1218" 
d="M649 526q117 0 187 60t69 166q0 74 -43 114t-123 41h-241l-74 -381h225zM606 281h-229l-55 -281h-269l281 1434h268l-55 -281h233q186 0 294 -98t108 -281q0 -229 -158 -361t-418 -132z" />
    <glyph glyph-name="germandbls" unicode="&#xdf;" horiz-adv-x="1196" 
d="M758 1450q158 0 244 -83t88 -216q0 -133 -54 -225t-153 -123q74 -18 135 -109q63 -88 63 -215q0 -496 -522 -495q-98 0 -164 16l43 221q88 -16 119 -16q137 0 205 62t68 178q-1 221 -207 223h-66l45 229h41q94 0 152 51q57 51 57 142q0 143 -131 143q-76 0 -130 -53
t-75 -150l-201 -1030h-245l129 668h-105l43 229h107l24 127q82 426 490 426z" />
    <glyph glyph-name="agrave" unicode="&#xe0;" horiz-adv-x="1234" 
d="M403 1450h345l71 -303h-194zM627 831q-143 1 -227 -119t-83 -249q-1 -129 51 -196t138 -66q145 1 227 119t82 284q0 109 -50 168t-138 59zM635 1049q74 0 136 -30t93 -75l17 88h256l-199 -1032h-256l20 106q-34 -46 -112 -84t-162 -38q-182 0 -285 116q-98 121 -98 301
q0 291 156 467q155 181 434 181z" />
    <glyph glyph-name="aacute" unicode="&#xe1;" horiz-adv-x="1234" 
d="M678 1147h-195l191 303h344zM627 831q-143 1 -227 -119t-83 -249q-1 -129 51 -196t138 -66q145 1 227 119t82 284q0 109 -50 168t-138 59zM635 1049q74 0 136 -30t93 -75l17 88h256l-199 -1032h-256l20 106q-34 -46 -112 -84t-162 -38q-182 0 -285 116q-98 121 -98 301
q0 291 156 467q155 181 434 181z" />
    <glyph glyph-name="acircumflex" unicode="&#xe2;" horiz-adv-x="1234" 
d="M596 1159h-262l409 381h84l271 -381h-248l-102 135zM627 831q-143 1 -227 -119t-83 -249q-1 -129 51 -196t138 -66q145 1 227 119t82 284q0 109 -50 168t-138 59zM635 1049q74 0 136 -30t93 -75l17 88h256l-199 -1032h-256l20 106q-34 -46 -112 -84t-162 -38
q-182 0 -285 116q-98 121 -98 301q0 291 156 467q155 181 434 181z" />
    <glyph glyph-name="atilde" unicode="&#xe3;" horiz-adv-x="1234" 
d="M596 1456q76 0 146 -42t120 -42q49 0 131 88l125 -112q-51 -82 -128 -130q-149 -93 -298 -8q-70 43 -120 43t-132 -88l-125 113q51 82 128 130t153 48zM627 831q-143 1 -227 -119t-83 -249q-1 -129 51 -196t138 -66q145 1 227 119t82 284q0 109 -50 168t-138 59z
M635 1049q74 0 136 -30t93 -75l17 88h256l-199 -1032h-256l20 106q-34 -46 -112 -84t-162 -38q-182 0 -285 116q-98 121 -98 301q0 291 156 467q155 181 434 181z" />
    <glyph glyph-name="adieresis" unicode="&#xe4;" horiz-adv-x="1234" 
d="M803 1333q0 63 41 105t104 41q62 0 104 -41q42 -40 42 -104t-41 -105t-105 -41t-104 41q-41 41 -41 104zM379 1333q0 63 41 105t104 41q62 0 104 -41q42 -40 42 -104t-41 -105t-105 -41t-104 41q-41 41 -41 104zM627 831q-143 1 -227 -119t-83 -249q-1 -129 51 -196
t138 -66q145 1 227 119t82 284q0 109 -50 168t-138 59zM635 1049q74 0 136 -30t93 -75l17 88h256l-199 -1032h-256l20 106q-34 -46 -112 -84t-162 -38q-182 0 -285 116q-98 121 -98 301q0 291 156 467q155 181 434 181z" />
    <glyph glyph-name="aring" unicode="&#xe5;" horiz-adv-x="1234" 
d="M713 1407q-61 0 -61 -66t61 -65q61 0 61 66t-61 65zM502 1341q0 89 59 149t151 60t152 -59t60 -149t-60 -150q-60 -59 -152 -59t-151 59t-59 149zM627 831q-143 1 -227 -119t-83 -249q-1 -129 51 -196t138 -66q145 1 227 119t82 284q0 109 -50 168t-138 59zM635 1049
q74 0 136 -30t93 -75l17 88h256l-199 -1032h-256l20 106q-34 -46 -112 -84t-162 -38q-182 0 -285 116q-98 121 -98 301q0 291 156 467q155 181 434 181z" />
    <glyph glyph-name="ae" unicode="&#xe6;" horiz-adv-x="1837" 
d="M1296 831q-90 0 -164 -55t-110 -141h469q-13 196 -195 196zM522 434q-188 0 -188 -118q0 -122 123 -119q92 0 161 60t93 177h-189zM977 395q0 -82 55 -138t150 -56q162 0 282 176l203 -105q-100 -152 -220 -220t-288 -68q-262 0 -379 198q-78 -96 -179 -147t-204 -51
q-168 0 -260 78t-92 219q0 174 129 264q133 90 318 90h258l8 45q4 33 4 37q0 55 -44 85t-114 29q-137 0 -201 -118l-213 49q98 287 435 287q227 0 319 -129q162 129 373 129t319 -118t107 -296q0 -63 -8 -96l-21 -105h-735q-2 -8 -2 -39z" />
    <glyph glyph-name="ccedilla" unicode="&#xe7;" horiz-adv-x="1144" 
d="M440 -123h181l-250 -422l-273 135zM45 416q0 256 172 444t449 189q332 0 405 -297l-233 -86q-47 166 -215 165q-141 0 -226 -120q-80 -121 -80 -277q0 -233 185 -233q149 0 274 178l203 -86q-92 -164 -217 -237q-124 -72 -310 -72t-296 122t-111 310z" />
    <glyph glyph-name="egrave" unicode="&#xe8;" horiz-adv-x="1161" 
d="M395 1450h344l72 -303h-195zM621 831q-90 0 -164 -55t-111 -141h471q-12 196 -196 196zM297 434v-33q0 -86 57 -143t152 -57q162 0 282 176l203 -105q-100 -152 -220 -220q-121 -68 -301 -68t-306 122q-123 124 -123 352t169 409t443 182q199 0 307 -118t107 -296
q0 -63 -8 -96l-21 -105h-741z" />
    <glyph glyph-name="eacute" unicode="&#xe9;" horiz-adv-x="1161" 
d="M651 1147h-194l190 303h344zM621 831q-90 0 -164 -55t-111 -141h471q-12 196 -196 196zM297 434v-33q0 -86 57 -143t152 -57q162 0 282 176l203 -105q-100 -152 -220 -220q-121 -68 -301 -68t-306 122q-123 124 -123 352t169 409t443 182q199 0 307 -118t107 -296
q0 -63 -8 -96l-21 -105h-741z" />
    <glyph glyph-name="ecircumflex" unicode="&#xea;" horiz-adv-x="1161" 
d="M549 1159h-262l409 381h84l271 -381h-248l-103 135zM621 831q-90 0 -164 -55t-111 -141h471q-12 196 -196 196zM297 434v-33q0 -86 57 -143t152 -57q162 0 282 176l203 -105q-100 -152 -220 -220q-121 -68 -301 -68t-306 122q-123 124 -123 352t169 409t443 182
q199 0 307 -118t107 -296q0 -63 -8 -96l-21 -105h-741z" />
    <glyph glyph-name="edieresis" unicode="&#xeb;" horiz-adv-x="1161" 
d="M784 1333q0 63 41 105t105 41q64 0 104 -41q41 -40 41 -104t-41 -105q-40 -41 -104 -41t-105 41t-41 104zM360 1333q0 63 41 105t105 41q64 0 104 -41q41 -40 41 -104t-41 -105q-40 -41 -104 -41t-105 41t-41 104zM621 831q-90 0 -164 -55t-111 -141h471
q-12 196 -196 196zM297 434v-33q0 -86 57 -143t152 -57q162 0 282 176l203 -105q-100 -152 -220 -220q-121 -68 -301 -68t-306 122q-123 124 -123 352t169 409t443 182q199 0 307 -118t107 -296q0 -63 -8 -96l-21 -105h-741z" />
    <glyph glyph-name="igrave" unicode="&#xec;" horiz-adv-x="589" 
d="M127 1450h344l72 -303h-195zM37 0l201 1032h256l-201 -1032h-256z" />
    <glyph glyph-name="iacute" unicode="&#xed;" horiz-adv-x="589" 
d="M424 1147h-195l191 303h344zM37 0l201 1032h256l-201 -1032h-256z" />
    <glyph glyph-name="icircumflex" unicode="&#xee;" horiz-adv-x="589" 
d="M256 1159h-262l409 381h84l271 -381h-248l-102 135zM37 0l201 1032h256l-201 -1032h-256z" />
    <glyph glyph-name="idieresis" unicode="&#xef;" horiz-adv-x="589" 
d="M485 1333q0 63 41 105q40 42 104 41q64 0 105 -41q41 -40 41 -104t-41 -105t-105 -41t-104 41q-41 41 -41 104zM61 1333q0 63 41 105q40 42 104 41q64 0 105 -41q41 -40 41 -104t-41 -105t-105 -41t-104 41q-41 41 -41 104zM37 0l201 1032h256l-201 -1032h-256z" />
    <glyph glyph-name="eth" unicode="&#xf0;" horiz-adv-x="1214" 
d="M629 831q-145 0 -232 -116q-84 -119 -84 -251q0 -265 193 -263q141 1 227 115t86 266q0 249 -190 249zM1104 731q0 -307 -139 -518q-70 -109 -197 -169t-291 -60q-201 0 -317 125q-115 127 -115 309q0 274 172 452q176 178 453 179q88 0 159 -41q-41 102 -133 182
l-84 -96l-133 108l76 86q-109 61 -160 80l162 186q78 -37 156 -86l88 99l135 -107l-86 -96q122 -104 188 -271t66 -362z" />
    <glyph glyph-name="ntilde" unicode="&#xf1;" horiz-adv-x="1198" 
d="M581 1456q75 0 147 -42t120 -42q49 0 131 88l125 -112q-51 -82 -128 -130q-150 -93 -298 -8q-72 43 -121 43t-131 -88l-125 113q51 82 128 130t152 48zM1065 817q0 -45 -8 -80l-144 -737h-256l129 662q6 36 6 74t-29 67q-30 29 -81 28q-100 1 -186 -113t-123 -306
l-80 -412h-256l201 1032h256l-33 -166q145 182 346 183q123 -1 191 -61t67 -171z" />
    <glyph glyph-name="ograve" unicode="&#xf2;" horiz-adv-x="1204" 
d="M381 1450h344l72 -303h-195zM621 831q-145 0 -228 -110q-76 -93 -76 -237q1 -144 55 -214t146 -69q145 0 227 110q76 93 76 237t-54 214t-146 69zM45 420q0 295 176 465q91 90 189 127t233 37q205 0 328 -124t123 -313q0 -295 -176 -465q-92 -90 -190 -127t-232 -36
q-205 0 -328 122q-123 128 -123 314z" />
    <glyph glyph-name="oacute" unicode="&#xf3;" horiz-adv-x="1204" 
d="M657 1147h-194l190 303h344zM621 831q-145 0 -228 -110q-76 -93 -76 -237q1 -144 55 -214t146 -69q145 0 227 110q76 93 76 237t-54 214t-146 69zM45 420q0 295 176 465q91 90 189 127t233 37q205 0 328 -124t123 -313q0 -295 -176 -465q-92 -90 -190 -127t-232 -36
q-205 0 -328 122q-123 128 -123 314z" />
    <glyph glyph-name="ocircumflex" unicode="&#xf4;" horiz-adv-x="1204" 
d="M528 1159h-262l410 381h84l270 -381h-248l-102 135zM621 831q-145 0 -228 -110q-76 -93 -76 -237q1 -144 55 -214t146 -69q145 0 227 110q76 93 76 237t-54 214t-146 69zM45 420q0 295 176 465q91 90 189 127t233 37q205 0 328 -124t123 -313q0 -295 -176 -465
q-92 -90 -190 -127t-232 -36q-205 0 -328 122q-123 128 -123 314z" />
    <glyph glyph-name="otilde" unicode="&#xf5;" horiz-adv-x="1204" 
d="M568 1456q76 0 146 -42q72 -42 120 -42t131 88l125 -112q-51 -82 -128 -130q-150 -93 -298 -8q-70 43 -120 43t-132 -88l-125 113q51 82 128 130t153 48zM621 831q-145 0 -228 -110q-76 -93 -76 -237q1 -144 55 -214t146 -69q145 0 227 110q76 93 76 237t-54 214t-146 69
zM45 420q0 295 176 465q91 90 189 127t233 37q205 0 328 -124t123 -313q0 -295 -176 -465q-92 -90 -190 -127t-232 -36q-205 0 -328 122q-123 128 -123 314z" />
    <glyph glyph-name="odieresis" unicode="&#xf6;" horiz-adv-x="1204" 
d="M780 1333q0 63 41 105t105 41q64 0 104 -41q41 -40 41 -104t-41 -105q-40 -41 -104 -41t-105 41t-41 104zM356 1333q0 63 41 105t105 41q64 0 104 -41q41 -40 41 -104t-41 -105q-40 -41 -104 -41t-105 41t-41 104zM621 831q-145 0 -228 -110q-76 -93 -76 -237
q1 -144 55 -214t146 -69q145 0 227 110q76 93 76 237t-54 214t-146 69zM45 420q0 295 176 465q91 90 189 127t233 37q205 0 328 -124t123 -313q0 -295 -176 -465q-92 -90 -190 -127t-232 -36q-205 0 -328 122q-123 128 -123 314z" />
    <glyph glyph-name="divide" unicode="&#xf7;" horiz-adv-x="1230" 
d="M1108 535h-975v221h975v-221zM449 1036q0 74 49 123t123 49q75 0 123 -49t48 -123t-48 -123q-50 -49 -124 -49t-122 49q-49 49 -49 123zM449 254q0 74 49 123t123 49q75 0 123 -49t48 -123t-48 -123q-50 -49 -124 -49t-122 49q-49 49 -49 123z" />
    <glyph glyph-name="oslash" unicode="&#xf8;" horiz-adv-x="1204" 
d="M621 831q-145 0 -228 -110q-76 -94 -76 -262q0 -39 2 -49l390 401q-43 20 -88 20zM821 573q0 8 -4 54l-391 -404q41 -23 92 -22q145 0 227 110q76 94 76 262zM45 422q0 293 176 463q97 90 193 127t228 37t241 -60l170 174l151 -141l-172 -176q61 -109 62 -234
q0 -295 -176 -465q-92 -90 -190 -127q-98 -36 -236 -36q-139 0 -242 59l-170 -174l-152 141l176 180q-59 103 -59 232z" />
    <glyph glyph-name="ugrave" unicode="&#xf9;" horiz-adv-x="1206" 
d="M395 1450h344l72 -303h-195zM342 -16q-122 0 -190 60t-68 171q0 45 8 80l144 737h256l-130 -661q-6 -35 -6 -60q0 -111 111 -110q100 -1 186 113t123 307l80 411h256l-201 -1032h-256l33 166q-145 -182 -346 -182z" />
    <glyph glyph-name="uacute" unicode="&#xfa;" horiz-adv-x="1206" 
d="M727 1147h-195l191 303h344zM342 -16q-122 0 -190 60t-68 171q0 45 8 80l144 737h256l-130 -661q-6 -35 -6 -60q0 -111 111 -110q100 -1 186 113t123 307l80 411h256l-201 -1032h-256l33 166q-145 -182 -346 -182z" />
    <glyph glyph-name="ucircumflex" unicode="&#xfb;" horiz-adv-x="1206" 
d="M571 1159h-262l410 381h84l270 -381h-248l-102 135zM342 -16q-122 0 -190 60t-68 171q0 45 8 80l144 737h256l-130 -661q-6 -35 -6 -60q0 -111 111 -110q100 -1 186 113t123 307l80 411h256l-201 -1032h-256l33 166q-145 -182 -346 -182z" />
    <glyph glyph-name="udieresis" unicode="&#xfc;" horiz-adv-x="1206" 
d="M793 1333q0 63 41 105t104 41q63 0 104 -41q41 -40 41 -104t-41 -105t-104 -41t-104 41t-41 104zM369 1333q0 63 41 105t104 41q63 0 104 -41q41 -40 41 -104t-41 -105t-104 -41t-104 41t-41 104zM342 -16q-122 0 -190 60t-68 171q0 45 8 80l144 737h256l-130 -661
q-6 -35 -6 -60q0 -111 111 -110q100 -1 186 113t123 307l80 411h256l-201 -1032h-256l33 166q-145 -182 -346 -182z" />
    <glyph glyph-name="yacute" unicode="&#xfd;" horiz-adv-x="1009" 
d="M553 1147h-195l191 303h344zM244 57l-168 975h256l102 -647l340 647h268l-806 -1450h-256z" />
    <glyph glyph-name="thorn" unicode="&#xfe;" horiz-adv-x="1241" 
d="M563 201q137 0 216 120t79 252t-50 195t-138 63q-137 -1 -221 -115t-84 -252q0 -264 198 -263zM1130 621q0 -276 -147 -459q-147 -178 -414 -178q-85 0 -153 36t-97 86l-100 -524h-256l361 1868h256l-101 -512q119 111 283 111q164 1 266 -113t102 -315z" />
    <glyph glyph-name="ydieresis" unicode="&#xff;" horiz-adv-x="1009" 
d="M668 1333q0 63 41 105t104 41q63 0 105 -41q42 -40 40 -104q0 -64 -40 -105t-104 -41t-105 41t-41 104zM244 1333q0 63 41 105t104 41q63 0 105 -41q42 -40 41 -104q0 -64 -41 -105q-40 -41 -104 -41t-105 41t-41 104zM244 57l-168 975h256l102 -647l340 647h268
l-806 -1450h-256z" />
    <glyph glyph-name="dotlessi" unicode="&#x131;" horiz-adv-x="589" 
d="M37 0l201 1032h256l-201 -1032h-256z" />
    <glyph glyph-name="Lslash" unicode="&#x141;" horiz-adv-x="1095" 
d="M233 750l136 684h268l-105 -535l201 100l70 -194l-320 -160l-77 -399h585l-49 -246h-854l96 496l-145 -74l-70 194z" />
    <glyph glyph-name="lslash" unicode="&#x142;" horiz-adv-x="712" 
d="M250 801l129 649h256l-100 -510l110 55l70 -194l-230 -115l-135 -686h-256l107 547l-109 -53l-69 194z" />
    <glyph glyph-name="OE" unicode="&#x152;" horiz-adv-x="2134" 
d="M653 229q199 0 340 164q154 182 154 434q0 177 -79 277t-226 100q-198 0 -346 -172t-148 -426q0 -178 79 -278t226 -99zM628 -16q-234 0 -395 156q-162 156 -161 446q0 358 198 594q225 270 592 270q244 0 402 -160l28 144h867l-50 -246h-598l-57 -301h475l-49 -246h-475
l-76 -395h619l-50 -246h-886l16 82q-166 -98 -400 -98z" />
    <glyph glyph-name="oe" unicode="&#x153;" horiz-adv-x="1937" 
d="M1397 831q-90 0 -164 -55t-111 -141h469q-12 196 -194 196zM621 831q-145 0 -228 -110q-76 -93 -76 -237q1 -144 55 -214t146 -69q145 0 227 110q76 93 76 237t-54 214t-146 69zM1077 395q-1 -82 55 -138t150 -56q162 0 283 176l202 -105q-100 -152 -220 -220t-287 -68
q-227 0 -351 155q-164 -156 -413 -155q-205 0 -328 122q-123 127 -123 314q0 295 176 465q91 90 189 127t233 37q236 0 363 -164q170 164 424 164q198 0 306 -118t107 -296q0 -63 -8 -96l-20 -105h-736q-2 -8 -2 -39z" />
    <glyph glyph-name="Scaron" unicode="&#x160;" horiz-adv-x="1105" 
d="M885 1942h262l-410 -381h-84l-270 381h248l102 -136zM641 1204q-68 0 -109 -40q-40 -40 -40 -104t48 -112t180 -116t195 -146q70 -78 70 -233q0 -229 -154 -353q-79 -66 -167 -92t-222 -24q-172 0 -297 122q-123 123 -122 283l227 123q27 -283 256 -283q94 -1 148 51
t54 135t-42 130q-43 47 -173 117t-200 162q-70 91 -70 225q0 181 124 291t319 110q136 0 242 -76t141 -192l-222 -123q-59 145 -186 145z" />
    <glyph glyph-name="scaron" unicode="&#x161;" horiz-adv-x="940" 
d="M762 1540h262l-410 -381h-84l-270 381h248l102 -135zM537 1049q106 0 196 -52q92 -49 125 -125l-182 -131q-53 90 -158 90q-43 -1 -72 -25q-28 -24 -28 -67t43 -69q18 -14 41 -25l94 -41q104 -47 158 -108t55 -154q0 -176 -109 -267t-287 -91t-276 94t-123 209l217 90
q43 -176 201 -176q57 -1 94 27t37 74t-39 79t-137 78q-211 100 -211 274q0 145 96 231q97 85 265 85z" />
    <glyph glyph-name="Ydieresis" unicode="&#x178;" horiz-adv-x="1040" 
d="M754 1734q0 64 41 105t104 41t105 -41t40 -104q0 -63 -40 -105q-40 -41 -104 -41t-105 41q-41 40 -41 104zM330 1734q0 64 41 105t104 41t105 -41t41 -104q0 -63 -41 -105q-40 -42 -104 -41q-64 0 -105 41q-41 40 -41 104zM354 610l-256 824h283l149 -557l373 557h287
l-569 -824l-117 -610h-268z" />
    <glyph glyph-name="Zcaron" unicode="&#x17d;" horiz-adv-x="1181" 
d="M940 1942h262l-409 -381h-84l-271 381h248l102 -136zM788 1188h-587l49 246h956l-24 -123l-822 -1065h648l-50 -246h-1017l24 123z" />
    <glyph glyph-name="zcaron" unicode="&#x17e;" horiz-adv-x="948" 
d="M762 1540h262l-410 -381h-84l-270 381h248l102 -135zM547 815h-416l41 217h748l-19 -98l-555 -717h461l-41 -217h-799l17 98z" />
    <glyph glyph-name="florin" unicode="&#x192;" horiz-adv-x="890" 
d="M858 1450q119 0 184 -41l-94 -205q-63 29 -117 29q-115 0 -143 -129l-12 -72h221l-43 -217h-221l-174 -885q-35 -180 -146 -272t-280 -92q-119 0 -185 41l95 205q63 -29 116 -29q117 0 144 129l174 903h-162l43 217h164l10 53q35 181 146 273t280 92z" />
    <glyph glyph-name="circumflex" unicode="&#x2c6;" horiz-adv-x="866" 
d="M389 1159h-262l410 381h84l270 -381h-248l-102 135z" />
    <glyph glyph-name="caron" unicode="&#x2c7;" horiz-adv-x="819" 
d="M664 1540h262l-410 -381h-84l-270 381h248l102 -135z" />
    <glyph glyph-name="breve" unicode="&#x2d8;" horiz-adv-x="507" 
d="M317 1421q0 -45 48 -45q25 0 43 16t22 42h186q-16 -98 -95 -160t-181 -64q-102 0 -156 50t-55 131q0 6 4 43h186q-2 -4 -2 -13z" />
    <glyph glyph-name="dotaccent" unicode="&#x2d9;" horiz-adv-x="589" 
d="M250 1329q0 70 47 117t117 47t116 -47t48 -117q0 -70 -48 -117t-116 -47q-70 0 -117 47t-47 117z" />
    <glyph glyph-name="ring" unicode="&#x2da;" horiz-adv-x="417" 
d="M319 1407q-61 0 -61 -66t61 -65q61 0 61 66t-61 65zM109 1341q0 89 59 149t151 60q91 0 151 -59t60 -149t-59 -150q-59 -59 -151 -59t-152 59q-59 59 -59 149z" />
    <glyph glyph-name="ogonek" unicode="&#x2db;" horiz-adv-x="487" 
d="M86 -502q-80 0 -124 43t-44 119q0 125 170 217h164l-27 -20q-57 -43 -67 -52q-58 -53 -58 -98t46 -43t120 90l92 -98q-121 -158 -272 -158z" />
    <glyph glyph-name="tilde" unicode="&#x2dc;" horiz-adv-x="843" 
d="M405 1456q75 0 147 -42t120 -42q49 0 131 88l125 -112q-51 -82 -128 -130q-150 -93 -298 -8q-72 43 -121 43t-131 -88l-125 113q51 82 128 130t152 48z" />
    <glyph glyph-name="hungarumlaut" unicode="&#x2dd;" horiz-adv-x="944" 
d="M725 1147h-195l191 303h344zM285 1147h-195l191 303h344z" />
    <glyph glyph-name="uni2206" unicode="&#x394;" horiz-adv-x="1374" 
d="M909 221l-313 901l-313 -901h626zM1208 0h-1224v66l508 1368h208l508 -1368v-66z" />
    <glyph glyph-name="uni2206" unicode="&#x2206;" horiz-adv-x="1374" 
d="M909 221l-313 901l-313 -901h626zM1208 0h-1224v66l508 1368h208l508 -1368v-66z" />
    <glyph glyph-name="uni2126" unicode="&#x3a9;" horiz-adv-x="1413" 
d="M1278 221v-221h-502v82l55 125q37 86 93 298t55 381q0 169 -72 256q-73 87 -201 87t-200 -87t-72 -256t52 -374t100 -315l51 -115v-82h-502v221h262q-81 130 -149 306t-68 374q0 241 144 395t384 154q241 0 383 -153t142 -396q0 -160 -53 -328t-111 -262l-53 -90h262z
" />
    <glyph glyph-name="uni2126" unicode="&#x2126;" horiz-adv-x="1413" 
d="M1278 221v-221h-502v82l55 125q37 86 93 298t55 381q0 169 -72 256q-73 87 -201 87t-200 -87t-72 -256t52 -374t100 -315l51 -115v-82h-502v221h262q-81 130 -149 306t-68 374q0 241 144 395t384 154q241 0 383 -153t142 -396q0 -160 -53 -328t-111 -262l-53 -90h262z
" />
    <glyph glyph-name="pi" unicode="&#x3c0;" horiz-adv-x="1179" 
d="M242 807h-170v225h1063v-225h-170v-807h-254v807h-215v-807h-254v807z" />
    <glyph glyph-name="uni2000" unicode="&#x2000;" horiz-adv-x="974" 
 />
    <glyph glyph-name="uni2001" unicode="&#x2001;" horiz-adv-x="1951" 
 />
    <glyph glyph-name="uni2002" unicode="&#x2002;" horiz-adv-x="974" 
 />
    <glyph glyph-name="uni2003" unicode="&#x2003;" horiz-adv-x="1951" 
 />
    <glyph glyph-name="uni2004" unicode="&#x2004;" horiz-adv-x="649" 
 />
    <glyph glyph-name="uni2005" unicode="&#x2005;" horiz-adv-x="487" 
 />
    <glyph glyph-name="uni2006" unicode="&#x2006;" horiz-adv-x="323" 
 />
    <glyph glyph-name="uni2007" unicode="&#x2007;" horiz-adv-x="323" 
 />
    <glyph glyph-name="uni2008" unicode="&#x2008;" horiz-adv-x="243" 
 />
    <glyph glyph-name="uni2009" unicode="&#x2009;" horiz-adv-x="389" 
 />
    <glyph glyph-name="uni200A" unicode="&#x200a;" horiz-adv-x="106" 
 />
    <glyph glyph-name="uni2010" unicode="&#x2010;" horiz-adv-x="1034" 
d="M862 539h-764l43 221h764z" />
    <glyph glyph-name="uni2011" unicode="&#x2011;" horiz-adv-x="1034" 
d="M862 539h-764l43 221h764z" />
    <glyph glyph-name="endash" unicode="&#x2013;" horiz-adv-x="1167" 
d="M1006 539h-912l43 221h912z" />
    <glyph glyph-name="emdash" unicode="&#x2014;" horiz-adv-x="1554" 
d="M1393 539h-1299l43 221h1299z" />
    <glyph glyph-name="quoteleft" unicode="&#x2018;" horiz-adv-x="663" 
d="M180 1450h332l63 -500h-186z" />
    <glyph glyph-name="quoteright" unicode="&#x2019;" horiz-adv-x="563" 
d="M268 950h-188l256 500h334z" />
    <glyph glyph-name="quotesinglbase" unicode="&#x201a;" horiz-adv-x="747" 
d="M176 -29h-188l256 500h334z" />
    <glyph glyph-name="quotedblleft" unicode="&#x201c;" horiz-adv-x="1114" 
d="M180 1450h332l63 -500h-186zM631 1450h332l63 -500h-186z" />
    <glyph glyph-name="quotedblright" unicode="&#x201d;" horiz-adv-x="993" 
d="M698 950h-188l256 500h334zM268 950h-188l256 500h334z" />
    <glyph glyph-name="quotedblbase" unicode="&#x201e;" horiz-adv-x="1167" 
d="M606 -31h-188l256 500h334zM176 -31h-188l256 500h334z" />
    <glyph glyph-name="dagger" unicode="&#x2020;" horiz-adv-x="1071" 
d="M428 811h-305l43 221h305l98 504h252l-98 -504h305l-43 -221h-305l-176 -913h-252z" />
    <glyph glyph-name="daggerdbl" unicode="&#x2021;" horiz-adv-x="1071" 
d="M430 811h-305l43 221h305l98 504h252l-98 -504h303l-43 -221h-303l-37 -188h305l-43 -222h-305l-96 -503h-252l96 503h-303l43 222h303z" />
    <glyph glyph-name="bullet" unicode="&#x2022;" horiz-adv-x="792" 
d="M133 675q0 101 71 172t170 71t171 -72q71 -72 71 -171t-70 -170t-172 -71q-101 0 -171 70t-70 171z" />
    <glyph glyph-name="ellipsis" unicode="&#x2026;" horiz-adv-x="1941" 
d="M1360 160q0 74 49 123t123 49t123 -49t49 -123t-49 -123t-123 -49t-123 49t-49 123zM872 332q74 0 123 -49t49 -123t-49 -123t-123 -49t-122 49q-49 49 -50 123q0 74 50 123q48 49 122 49zM41 160q0 74 49 123t123 49t123 -49t49 -123t-49 -123t-123 -49t-123 49t-49 123
z" />
    <glyph glyph-name="uni202F" unicode="&#x202f;" horiz-adv-x="389" 
 />
    <glyph glyph-name="perthousand" unicode="&#x2030;" horiz-adv-x="2619" 
d="M129 43l1387 1473l129 -125l-1387 -1473zM2144 444q-66 0 -112 -46t-45 -113q0 -106 104 -107q66 0 112 46t46 114q-1 106 -105 106zM1776 258q0 168 117 274t288 107q121 0 200 -77t79 -197q0 -169 -117 -275t-289 -106q-121 0 -200 76q-78 77 -78 198zM1319 444
q-66 0 -112 -46t-46 -113q0 -106 105 -107q66 0 112 46t45 114q0 106 -104 106zM950 258q0 168 117 274t289 107q122 0 200 -77t78 -197q0 -169 -117 -275t-288 -106q-121 0 -200 76t-79 198zM481 1255q-65 0 -111 -46t-46 -113q0 -106 104 -107q66 0 112 46t46 114
q-1 106 -105 106zM113 1069q0 169 117 275t288 106q121 0 200 -77t79 -197q0 -168 -117 -274t-289 -107q-121 0 -200 76q-78 77 -78 198z" />
    <glyph glyph-name="guilsinglleft" unicode="&#x2039;" horiz-adv-x="849" 
d="M606 104l-547 447l33 180l721 434l-55 -293l-420 -247l317 -265z" />
    <glyph glyph-name="guilsinglright" unicode="&#x203a;" horiz-adv-x="849" 
d="M231 1165l547 -446l-33 -180l-720 -435l55 293l420 248l-318 264z" />
    <glyph glyph-name="fraction" unicode="&#x2044;" horiz-adv-x="1523" 
d="M4 43l1387 1473l129 -125l-1387 -1473z" />
    <glyph glyph-name="uni205F" unicode="&#x205f;" horiz-adv-x="487" 
 />
    <glyph glyph-name="uni2070" unicode="&#x2070;" horiz-adv-x="782" 
d="M475 1272q-102 0 -158 -105q-53 -107 -53 -205q0 -186 115 -186q104 0 156 105q55 103 55 203q0 188 -115 188zM499 1442q134 0 208 -85q73 -85 73 -225t-43 -256t-145 -193t-236 -77t-209 85q-73 85 -73 223q1 310 188 451q103 77 237 77z" />
    <glyph glyph-name="uni2074" unicode="&#x2074;" horiz-adv-x="821" 
d="M504 1167l-178 -249h129zM582 614h-185l25 134h-354l18 92l449 594h204l-100 -516h96l-33 -170h-96z" />
    <glyph glyph-name="uni2075" unicode="&#x2075;" horiz-adv-x="745" 
d="M358 776q119 0 119 135q0 43 -26 71q-27 28 -79 28t-118 -52l-139 31l131 445h467l-33 -170h-313l-48 -138q57 31 145 31t147 -59q58 -59 59 -160q0 -154 -91 -243t-247 -89q-112 0 -184 70t-74 180l174 21q6 -47 36 -74t74 -27z" />
    <glyph glyph-name="uni2076" unicode="&#x2076;" horiz-adv-x="737" 
d="M496 881q0 94 -92 94q-45 0 -77 -31t-32 -74q0 -42 27 -68q28 -26 70 -26t73 30t31 75zM489 1145q87 1 145 -59t58 -164q0 -144 -91 -230t-245 -86q-112 0 -184 70t-72 178t78 211l301 377h211l-237 -301q29 4 36 4z" />
    <glyph glyph-name="uni2077" unicode="&#x2077;" horiz-adv-x="667" 
d="M190 1434h543l-12 -72l-453 -748h-196l393 650h-307z" />
    <glyph glyph-name="uni2078" unicode="&#x2078;" horiz-adv-x="653" 
d="M451 1305q-47 0 -76 -29t-29 -78q0 -74 70 -74q44 0 74 30t30 77q1 74 -69 74zM266 865q0 -89 90 -89q44 0 78 30q33 30 33 74q0 89 -88 89q-43 0 -78 -31t-35 -73zM466 1442q110 0 168 -54q60 -54 60 -143q0 -123 -127 -188q86 -45 86 -170t-92 -203t-220 -78t-196 60
q-67 60 -67 148q0 90 44 152t118 91q-66 41 -66 137q0 125 105 195q77 53 187 53z" />
    <glyph glyph-name="uni2079" unicode="&#x2079;" horiz-adv-x="737" 
d="M414 1073q44 0 76 31t32 74q0 42 -26 68t-70 26q-43 0 -74 -30q-30 -30 -30 -75t24 -69t68 -25zM328 903q-88 -1 -146 59t-57 164q0 144 91 230t245 86q111 0 183 -70t73 -178q0 -108 -78 -211l-301 -377h-211l238 301q-29 -4 -37 -4z" />
    <glyph glyph-name="Euro" unicode="&#x20ac;" horiz-adv-x="1284" 
d="M950 1450q305 0 402 -268l-222 -121q-31 71 -90 111t-135 40q-221 0 -330 -221h459l-145 -221h-385l-23 -106h488l-146 -222h-356q29 -221 244 -221q154 0 270 152l180 -125q-197 -264 -495 -264q-195 0 -314 129q-117 131 -131 329h-217l143 222h82l23 106h-184l145 221
h102q86 213 258 336q176 123 377 123z" />
    <glyph glyph-name="trademark" unicode="&#x2122;" horiz-adv-x="1744" 
d="M977 614h-201l158 820h201l102 -478l285 478h211l-158 -820h-201l76 396l-195 -320h-131l-71 320zM362 1249h-212l34 185h627l-35 -185h-213l-123 -635h-200z" />
    <glyph glyph-name="partialdiff" unicode="&#x2202;" horiz-adv-x="1300" 
d="M702 831q-143 0 -241 -120q-96 -121 -96 -267q0 -106 55 -175t155 -68q145 -1 229 113t85 274q-1 243 -187 243zM649 1450q271 0 397 -171t126 -515t-140 -555q-154 -225 -497 -225q-195 0 -322 122q-125 123 -125 322q0 270 181 445t456 176q100 0 178 -45
q-17 117 -73 173t-156 56q-162 0 -236 -152l-231 72q41 129 167 213t275 84z" />
    <glyph glyph-name="product" unicode="&#x220f;" horiz-adv-x="1124" 
d="M397 0h-254v1434h838v-1434h-254v1208h-330v-1208z" />
    <glyph glyph-name="summation" unicode="&#x2211;" horiz-adv-x="1140" 
d="M1004 225v-225h-904v113l381 604l-381 604v113h904v-226h-558l289 -463v-57l-289 -463h558z" />
    <glyph glyph-name="minus" unicode="&#x2212;" horiz-adv-x="1243" 
d="M1059 539h-975l43 221h975z" />
    <glyph glyph-name="radical" unicode="&#x221a;" horiz-adv-x="1150" 
d="M70 567v230h376l146 -463l319 1116h244l-448 -1450h-213l-187 567h-237z" />
    <glyph glyph-name="infinity" unicode="&#x221e;" horiz-adv-x="1806" 
d="M1280 557q86 0 135 46t49 132t-49 132t-135 46q-145 0 -240 -178q95 -178 240 -178zM780 735q-96 178 -252 178q-76 0 -124 -46q-50 -46 -50 -132t50 -132t125 -46q158 0 251 178zM1315 344q-121 0 -231 49t-175 146q-65 -95 -175 -145t-230 -50q-186 0 -294 106
t-108 285t108 285t294 106q120 0 230 -49t175 -145q65 96 175 145t231 49q186 0 294 -106q107 -106 107 -284t-108 -286q-108 -106 -293 -106z" />
    <glyph glyph-name="integral" unicode="&#x222b;" horiz-adv-x="890" 
d="M850 1450q127 0 192 -41l-94 -205q-63 29 -117 29q-115 0 -143 -129l-229 -1174q-70 -365 -412 -364q-133 0 -199 41l95 205q63 -29 116 -29q117 0 144 129l229 1173q70 365 418 365z" />
    <glyph glyph-name="approxequal" unicode="&#x2248;" horiz-adv-x="1200" 
d="M793 967q100 0 202 104l109 -141q-57 -100 -156 -162q-100 -66 -194 -66t-209 60t-180 61q-103 0 -203 -104l-109 141q57 98 157 163t194 65q96 0 210 -61q114 -60 179 -60zM410 664q94 0 208 -60t181 -61q102 0 202 104l109 -141q-57 -100 -156 -162q-100 -66 -194 -66
t-208 61q-114 60 -181 60q-101 0 -203 -104l-109 141q57 98 157 163t194 65z" />
    <glyph glyph-name="notequal" unicode="&#x2260;" horiz-adv-x="1271" 
d="M188 709v221h488l121 211l192 -107l-59 -104h153v-221h-278l-84 -148h362v-221h-487l-121 -211l-192 107l59 104h-154v221h279l84 148h-363z" />
    <glyph glyph-name="lessequal" unicode="&#x2264;" horiz-adv-x="1198" 
d="M1057 0h-975v221h975v-221zM969 287l-801 415v242l801 416v-268l-516 -269l516 -268v-268z" />
    <glyph glyph-name="greaterequal" unicode="&#x2265;" horiz-adv-x="1198" 
d="M100 221h975v-221h-975v221zM188 1360l801 -416v-242l-801 -415v268l517 268l-517 269v268z" />
    <glyph glyph-name="lozenge" unicode="&#x25ca;" horiz-adv-x="1110" 
d="M313 717l242 -496l242 496l-242 493zM680 0h-250l-371 717l371 717h250l371 -717z" />
    <glyph glyph-name="NULL" horiz-adv-x="0" 
 />
    <glyph glyph-name="CR.001" horiz-adv-x="681" 
 />
    <glyph glyph-name="CR" horiz-adv-x="452" 
 />
    <glyph glyph-name="apple" horiz-adv-x="1581" 
d="M836 242l473 -138v844q-76 -124 -201 -200t-272 -89v-417zM272 948v-844l473 138v417q-151 12 -275 89t-198 200zM1307 1233l-471 137v-620q193 16 326 154t145 329zM745 750v620l-471 -137q12 -190 146 -330q135 -137 325 -153zM1397 1264v-1219q1 -17 -13 -31t-27 -14
t-20 2l-546 158l-547 -158q-6 -2 -20 -2t-26 13q-13 13 -14 32v1219q0 37 33 45l553 159q20 8 41 0l553 -159q33 -8 33 -45z" />
    <glyph glyph-name="No" horiz-adv-x="2689" 
d="M2105 1233q-143 0 -227 -111q-76 -94 -76 -238t54 -212q54 -70 147 -70q143 0 227 111q76 93 76 237t-54 214t-147 69zM1530 821q0 295 176 465q92 90 189 127t233 37q205 0 328 -124t122 -312q0 -295 -176 -465q-92 -90 -189 -127t-233 -37q-206 0 -328 125t-122 311z
M2347 0h-932l43 221h932zM952 487l185 947h268l-281 -1434h-282l-336 946l-184 -946h-269l281 1434h282z" />
    <glyph glyph-name="zero.tn" 
d="M711 1212q-127 0 -224 -120q-172 -223 -172 -568q1 -147 55 -225t148 -78q127 0 223 121q172 223 172 567q0 147 -54 225t-148 78zM1174 920q0 -357 -158 -630q-80 -138 -221 -222t-323 -84t-300 131q-117 131 -117 399q12 627 377 852q142 84 324 84t300 -132t118 -398z
" />
    <glyph glyph-name="one.tn" 
d="M350 1188l469 246h115l-281 -1434h-260l209 1073l-305 -164z" />
    <glyph glyph-name="two.tn" 
d="M715 1450q182 0 279 -94t98 -262q0 -109 -39 -195t-127 -178l-457 -483h496l-45 -238h-916l19 102l639 668q90 92 130 161t40 139q-1 144 -138 142q-154 0 -217 -204l-244 41q45 185 173 293t309 108z" />
    <glyph glyph-name="three.tn" 
d="M512 221q122 0 188 75t66 200q0 225 -188 225q-63 0 -132 -31l-73 135l336 387h-447l41 222h823l-16 -91l-430 -456q53 4 59 4q135 0 211 -93t76 -270q0 -256 -144 -400t-386 -144q-193 0 -314 120q-119 121 -119 295l238 31q29 -209 211 -209z" />
    <glyph glyph-name="four.tn" 
d="M743 1024l-376 -520h276zM805 0h-260l53 266h-614l24 131l805 1037h272l-182 -930h160l-45 -238h-160z" />
    <glyph glyph-name="five.tn" 
d="M793 496q0 228 -181 227q-158 0 -290 -129l-156 33l225 807h752l-45 -238h-533l-90 -299q102 53 203 53q180 0 277 -102t98 -297q0 -258 -152 -413t-403 -154q-188 0 -301 102q-109 104 -109 260q0 33 2 43l250 37q8 -205 208 -205q102 0 174 79q71 80 71 196z" />
    <glyph glyph-name="six.tn" 
d="M791 477q1 203 -197 203q-96 0 -178 -78t-82 -176t52 -152t146 -53q94 0 177 77q82 77 82 179zM670 918q176 0 278 -106t103 -294q0 -252 -159 -393t-398 -141q-186 0 -306 108q-114 111 -114 290t135 353l549 715h297l-418 -532h33z" />
    <glyph glyph-name="seven.tn" 
d="M340 1434h872l-22 -107l-778 -1327h-277l701 1196h-543z" />
    <glyph glyph-name="eight.tn" 
d="M858 1070q0 167 -160 167q-78 0 -142 -59q-64 -58 -64 -138t40 -124t120 -44q78 0 142 58t64 140zM772 440q0 194 -192 195q-96 0 -172 -66q-74 -66 -74 -160q0 -188 198 -188q96 -1 168 61t72 158zM737 1450q173 0 269 -93t96 -263q0 -106 -62 -196t-153 -130
q59 -31 102 -119t43 -184q0 -213 -127 -336q-152 -145 -424 -145q-176 0 -292 108q-115 108 -115 259q0 152 74 261q75 109 200 166q-43 37 -72 102t-28 134q0 184 138 310t351 126z" />
    <glyph glyph-name="nine.tn" 
d="M866 1008q0 204 -196 204q-96 0 -181 -77q-79 -77 -79 -179t50 -152t146 -50t178 76t82 178zM530 516q-176 0 -278 106t-102 293q0 252 157 394q160 141 400 141q190 0 303 -111q116 -106 116 -286t-135 -355l-549 -714h-297l418 532h-33z" />
    </font>
</defs>
</svg>
